%FSLAX45Y45*%
G04 Gerber Fmt 4.5, Leading zero omitted, Abs format (unit mm)*
G04 Created by KiCad (PCBNEW (5.1.12)-1) date 2022-02-08 18:52:23*
%MOMM*%
%LPD*%
G01*
G04 APERTURE LIST*
%TA.AperFunction,Profile*%
%ADD10C,0.050000*%
%TD*%
%ADD11C,0.200000*%
%ADD12C,0.300000*%
G04 APERTURE END LIST*
D10*
X22098000Y-6350000D02*
X22098000Y-9398000D01*
X19050000Y-6350000D02*
X22098000Y-6350000D01*
X22098000Y-9398000D02*
X19050000Y-9398000D01*
X19050000Y-9398000D02*
X19050000Y-6350000D01*
D11*
X19327000Y-7219000D02*
X19367000Y-7259000D01*
X19367000Y-7219000D02*
X19327000Y-7259000D01*
X19538000Y-7346000D02*
X19578000Y-7386000D01*
X19578000Y-7346000D02*
X19538000Y-7386000D01*
X19665000Y-7346000D02*
X19705000Y-7386000D01*
X19705000Y-7346000D02*
X19665000Y-7386000D01*
X19792000Y-6711000D02*
X19832000Y-6751000D01*
X19832000Y-6711000D02*
X19792000Y-6751000D01*
X19919000Y-8870000D02*
X19959000Y-8910000D01*
X19959000Y-8870000D02*
X19919000Y-8910000D01*
X19989500Y-8489000D02*
X20029500Y-8529000D01*
X20029500Y-8489000D02*
X19989500Y-8529000D01*
X20046000Y-7600000D02*
X20086000Y-7640000D01*
X20086000Y-7600000D02*
X20046000Y-7640000D01*
X20046000Y-8235000D02*
X20086000Y-8275000D01*
X20086000Y-8235000D02*
X20046000Y-8275000D01*
X20046000Y-8235000D02*
X20086000Y-8275000D01*
X20086000Y-8235000D02*
X20046000Y-8275000D01*
X20257000Y-7981000D02*
X20297000Y-8021000D01*
X20297000Y-7981000D02*
X20257000Y-8021000D01*
X20257000Y-8235000D02*
X20297000Y-8275000D01*
X20297000Y-8235000D02*
X20257000Y-8275000D01*
X20554000Y-7727000D02*
X20594000Y-7767000D01*
X20594000Y-7727000D02*
X20554000Y-7767000D01*
X21189000Y-6838000D02*
X21229000Y-6878000D01*
X21229000Y-6838000D02*
X21189000Y-6878000D01*
X21824000Y-7219000D02*
X21864000Y-7259000D01*
X21864000Y-7219000D02*
X21824000Y-7259000D01*
X19329000Y-8509000D02*
G75*
G03*
X19329000Y-8509000I-25000J0D01*
G01*
X19329000Y-8890000D02*
G75*
G03*
X19329000Y-8890000I-25000J0D01*
G01*
X19710000Y-8509000D02*
G75*
G03*
X19710000Y-8509000I-25000J0D01*
G01*
X19710000Y-8890000D02*
G75*
G03*
X19710000Y-8890000I-25000J0D01*
G01*
X20091000Y-9144000D02*
G75*
G03*
X20091000Y-9144000I-25000J0D01*
G01*
X21107000Y-9144000D02*
G75*
G03*
X21107000Y-9144000I-25000J0D01*
G01*
X21082000Y-6698500D02*
X21082000Y-6763500D01*
X21049500Y-6731000D02*
X21114500Y-6731000D01*
X21209000Y-6698500D02*
X21209000Y-6763500D01*
X21176500Y-6731000D02*
X21241500Y-6731000D01*
X21336000Y-6698500D02*
X21336000Y-6763500D01*
X21303500Y-6731000D02*
X21368500Y-6731000D01*
X21463000Y-6698500D02*
X21463000Y-6763500D01*
X21430500Y-6731000D02*
X21495500Y-6731000D01*
X21717000Y-8349500D02*
X21717000Y-8414500D01*
X21684500Y-8382000D02*
X21749500Y-8382000D01*
X21717000Y-8476500D02*
X21717000Y-8541500D01*
X21684500Y-8509000D02*
X21749500Y-8509000D01*
X21717000Y-8603500D02*
X21717000Y-8668500D01*
X21684500Y-8636000D02*
X21749500Y-8636000D01*
X21717000Y-8730500D02*
X21717000Y-8795500D01*
X21684500Y-8763000D02*
X21749500Y-8763000D01*
X21717000Y-8857500D02*
X21717000Y-8922500D01*
X21684500Y-8890000D02*
X21749500Y-8890000D01*
X21717000Y-8984500D02*
X21717000Y-9049500D01*
X21684500Y-9017000D02*
X21749500Y-9017000D01*
D12*
X19333928Y-9866214D02*
X19333928Y-9566214D01*
X19405357Y-9566214D01*
X19448214Y-9580500D01*
X19476786Y-9609072D01*
X19491071Y-9637643D01*
X19505357Y-9694786D01*
X19505357Y-9737643D01*
X19491071Y-9794786D01*
X19476786Y-9823357D01*
X19448214Y-9851929D01*
X19405357Y-9866214D01*
X19333928Y-9866214D01*
X19633928Y-9866214D02*
X19633928Y-9666214D01*
X19633928Y-9723357D02*
X19648214Y-9694786D01*
X19662500Y-9680500D01*
X19691071Y-9666214D01*
X19719643Y-9666214D01*
X19819643Y-9866214D02*
X19819643Y-9666214D01*
X19819643Y-9566214D02*
X19805357Y-9580500D01*
X19819643Y-9594786D01*
X19833928Y-9580500D01*
X19819643Y-9566214D01*
X19819643Y-9594786D01*
X20005357Y-9866214D02*
X19976786Y-9851929D01*
X19962500Y-9823357D01*
X19962500Y-9566214D01*
X20162500Y-9866214D02*
X20133928Y-9851929D01*
X20119643Y-9823357D01*
X20119643Y-9566214D01*
X20505357Y-9866214D02*
X20505357Y-9566214D01*
X20605357Y-9780500D01*
X20705357Y-9566214D01*
X20705357Y-9866214D01*
X20976786Y-9866214D02*
X20976786Y-9709072D01*
X20962500Y-9680500D01*
X20933928Y-9666214D01*
X20876786Y-9666214D01*
X20848214Y-9680500D01*
X20976786Y-9851929D02*
X20948214Y-9866214D01*
X20876786Y-9866214D01*
X20848214Y-9851929D01*
X20833928Y-9823357D01*
X20833928Y-9794786D01*
X20848214Y-9766214D01*
X20876786Y-9751929D01*
X20948214Y-9751929D01*
X20976786Y-9737643D01*
X21119643Y-9666214D02*
X21119643Y-9966214D01*
X21119643Y-9680500D02*
X21148214Y-9666214D01*
X21205357Y-9666214D01*
X21233928Y-9680500D01*
X21248214Y-9694786D01*
X21262500Y-9723357D01*
X21262500Y-9809072D01*
X21248214Y-9837643D01*
X21233928Y-9851929D01*
X21205357Y-9866214D01*
X21148214Y-9866214D01*
X21119643Y-9851929D01*
X21391071Y-9837643D02*
X21405357Y-9851929D01*
X21391071Y-9866214D01*
X21376786Y-9851929D01*
X21391071Y-9837643D01*
X21391071Y-9866214D01*
X21391071Y-9680500D02*
X21405357Y-9694786D01*
X21391071Y-9709072D01*
X21376786Y-9694786D01*
X21391071Y-9680500D01*
X21391071Y-9709072D01*
X19007500Y-10340500D02*
X19047500Y-10380500D01*
X19047500Y-10340500D02*
X19007500Y-10380500D01*
X19391071Y-10196214D02*
X19419643Y-10196214D01*
X19448214Y-10210500D01*
X19462500Y-10224786D01*
X19476786Y-10253357D01*
X19491071Y-10310500D01*
X19491071Y-10381929D01*
X19476786Y-10439072D01*
X19462500Y-10467643D01*
X19448214Y-10481929D01*
X19419643Y-10496214D01*
X19391071Y-10496214D01*
X19362500Y-10481929D01*
X19348214Y-10467643D01*
X19333928Y-10439072D01*
X19319643Y-10381929D01*
X19319643Y-10310500D01*
X19333928Y-10253357D01*
X19348214Y-10224786D01*
X19362500Y-10210500D01*
X19391071Y-10196214D01*
X19619643Y-10467643D02*
X19633928Y-10481929D01*
X19619643Y-10496214D01*
X19605357Y-10481929D01*
X19619643Y-10467643D01*
X19619643Y-10496214D01*
X19891071Y-10296214D02*
X19891071Y-10496214D01*
X19819643Y-10181929D02*
X19748214Y-10396214D01*
X19933928Y-10396214D01*
X20105357Y-10196214D02*
X20133928Y-10196214D01*
X20162500Y-10210500D01*
X20176786Y-10224786D01*
X20191071Y-10253357D01*
X20205357Y-10310500D01*
X20205357Y-10381929D01*
X20191071Y-10439072D01*
X20176786Y-10467643D01*
X20162500Y-10481929D01*
X20133928Y-10496214D01*
X20105357Y-10496214D01*
X20076786Y-10481929D01*
X20062500Y-10467643D01*
X20048214Y-10439072D01*
X20033928Y-10381929D01*
X20033928Y-10310500D01*
X20048214Y-10253357D01*
X20062500Y-10224786D01*
X20076786Y-10210500D01*
X20105357Y-10196214D01*
X20391071Y-10196214D02*
X20419643Y-10196214D01*
X20448214Y-10210500D01*
X20462500Y-10224786D01*
X20476786Y-10253357D01*
X20491071Y-10310500D01*
X20491071Y-10381929D01*
X20476786Y-10439072D01*
X20462500Y-10467643D01*
X20448214Y-10481929D01*
X20419643Y-10496214D01*
X20391071Y-10496214D01*
X20362500Y-10481929D01*
X20348214Y-10467643D01*
X20333928Y-10439072D01*
X20319643Y-10381929D01*
X20319643Y-10310500D01*
X20333928Y-10253357D01*
X20348214Y-10224786D01*
X20362500Y-10210500D01*
X20391071Y-10196214D01*
X20619643Y-10496214D02*
X20619643Y-10296214D01*
X20619643Y-10324786D02*
X20633928Y-10310500D01*
X20662500Y-10296214D01*
X20705357Y-10296214D01*
X20733928Y-10310500D01*
X20748214Y-10339072D01*
X20748214Y-10496214D01*
X20748214Y-10339072D02*
X20762500Y-10310500D01*
X20791071Y-10296214D01*
X20833928Y-10296214D01*
X20862500Y-10310500D01*
X20876786Y-10339072D01*
X20876786Y-10496214D01*
X21019643Y-10496214D02*
X21019643Y-10296214D01*
X21019643Y-10324786D02*
X21033928Y-10310500D01*
X21062500Y-10296214D01*
X21105357Y-10296214D01*
X21133928Y-10310500D01*
X21148214Y-10339072D01*
X21148214Y-10496214D01*
X21148214Y-10339072D02*
X21162500Y-10310500D01*
X21191071Y-10296214D01*
X21233928Y-10296214D01*
X21262500Y-10310500D01*
X21276786Y-10339072D01*
X21276786Y-10496214D01*
X21862500Y-10181929D02*
X21605357Y-10567643D01*
X22248214Y-10196214D02*
X22276786Y-10196214D01*
X22305357Y-10210500D01*
X22319643Y-10224786D01*
X22333928Y-10253357D01*
X22348214Y-10310500D01*
X22348214Y-10381929D01*
X22333928Y-10439072D01*
X22319643Y-10467643D01*
X22305357Y-10481929D01*
X22276786Y-10496214D01*
X22248214Y-10496214D01*
X22219643Y-10481929D01*
X22205357Y-10467643D01*
X22191071Y-10439072D01*
X22176786Y-10381929D01*
X22176786Y-10310500D01*
X22191071Y-10253357D01*
X22205357Y-10224786D01*
X22219643Y-10210500D01*
X22248214Y-10196214D01*
X22476786Y-10467643D02*
X22491071Y-10481929D01*
X22476786Y-10496214D01*
X22462500Y-10481929D01*
X22476786Y-10467643D01*
X22476786Y-10496214D01*
X22676786Y-10196214D02*
X22705357Y-10196214D01*
X22733928Y-10210500D01*
X22748214Y-10224786D01*
X22762500Y-10253357D01*
X22776786Y-10310500D01*
X22776786Y-10381929D01*
X22762500Y-10439072D01*
X22748214Y-10467643D01*
X22733928Y-10481929D01*
X22705357Y-10496214D01*
X22676786Y-10496214D01*
X22648214Y-10481929D01*
X22633928Y-10467643D01*
X22619643Y-10439072D01*
X22605357Y-10381929D01*
X22605357Y-10310500D01*
X22619643Y-10253357D01*
X22633928Y-10224786D01*
X22648214Y-10210500D01*
X22676786Y-10196214D01*
X23062500Y-10496214D02*
X22891071Y-10496214D01*
X22976786Y-10496214D02*
X22976786Y-10196214D01*
X22948214Y-10239072D01*
X22919643Y-10267643D01*
X22891071Y-10281929D01*
X23333928Y-10196214D02*
X23191071Y-10196214D01*
X23176786Y-10339072D01*
X23191071Y-10324786D01*
X23219643Y-10310500D01*
X23291071Y-10310500D01*
X23319643Y-10324786D01*
X23333928Y-10339072D01*
X23348214Y-10367643D01*
X23348214Y-10439072D01*
X23333928Y-10467643D01*
X23319643Y-10481929D01*
X23291071Y-10496214D01*
X23219643Y-10496214D01*
X23191071Y-10481929D01*
X23176786Y-10467643D01*
X23448214Y-10196214D02*
X23648214Y-10196214D01*
X23519643Y-10496214D01*
X23748214Y-10196214D02*
X23748214Y-10253357D01*
X23862500Y-10196214D02*
X23862500Y-10253357D01*
X24305357Y-10610500D02*
X24291071Y-10596214D01*
X24262500Y-10553357D01*
X24248214Y-10524786D01*
X24233928Y-10481929D01*
X24219643Y-10410500D01*
X24219643Y-10353357D01*
X24233928Y-10281929D01*
X24248214Y-10239072D01*
X24262500Y-10210500D01*
X24291071Y-10167643D01*
X24305357Y-10153357D01*
X24576786Y-10496214D02*
X24405357Y-10496214D01*
X24491071Y-10496214D02*
X24491071Y-10196214D01*
X24462500Y-10239072D01*
X24433928Y-10267643D01*
X24405357Y-10281929D01*
X24833928Y-10296214D02*
X24833928Y-10496214D01*
X24762500Y-10181929D02*
X24691071Y-10396214D01*
X24876786Y-10396214D01*
X25219643Y-10496214D02*
X25219643Y-10196214D01*
X25348214Y-10496214D02*
X25348214Y-10339072D01*
X25333928Y-10310500D01*
X25305357Y-10296214D01*
X25262500Y-10296214D01*
X25233928Y-10310500D01*
X25219643Y-10324786D01*
X25533928Y-10496214D02*
X25505357Y-10481929D01*
X25491071Y-10467643D01*
X25476786Y-10439072D01*
X25476786Y-10353357D01*
X25491071Y-10324786D01*
X25505357Y-10310500D01*
X25533928Y-10296214D01*
X25576786Y-10296214D01*
X25605357Y-10310500D01*
X25619643Y-10324786D01*
X25633928Y-10353357D01*
X25633928Y-10439072D01*
X25619643Y-10467643D01*
X25605357Y-10481929D01*
X25576786Y-10496214D01*
X25533928Y-10496214D01*
X25805357Y-10496214D02*
X25776786Y-10481929D01*
X25762500Y-10453357D01*
X25762500Y-10196214D01*
X26033928Y-10481929D02*
X26005357Y-10496214D01*
X25948214Y-10496214D01*
X25919643Y-10481929D01*
X25905357Y-10453357D01*
X25905357Y-10339072D01*
X25919643Y-10310500D01*
X25948214Y-10296214D01*
X26005357Y-10296214D01*
X26033928Y-10310500D01*
X26048214Y-10339072D01*
X26048214Y-10367643D01*
X25905357Y-10396214D01*
X26162500Y-10481929D02*
X26191071Y-10496214D01*
X26248214Y-10496214D01*
X26276786Y-10481929D01*
X26291071Y-10453357D01*
X26291071Y-10439072D01*
X26276786Y-10410500D01*
X26248214Y-10396214D01*
X26205357Y-10396214D01*
X26176786Y-10381929D01*
X26162500Y-10353357D01*
X26162500Y-10339072D01*
X26176786Y-10310500D01*
X26205357Y-10296214D01*
X26248214Y-10296214D01*
X26276786Y-10310500D01*
X26391071Y-10610500D02*
X26405357Y-10596214D01*
X26433928Y-10553357D01*
X26448214Y-10524786D01*
X26462500Y-10481929D01*
X26476786Y-10410500D01*
X26476786Y-10353357D01*
X26462500Y-10281929D01*
X26448214Y-10239072D01*
X26433928Y-10210500D01*
X26405357Y-10167643D01*
X26391071Y-10153357D01*
X19047500Y-10756500D02*
G75*
G03*
X19047500Y-10756500I-25000J0D01*
G01*
X19391071Y-10592214D02*
X19419643Y-10592214D01*
X19448214Y-10606500D01*
X19462500Y-10620786D01*
X19476786Y-10649357D01*
X19491071Y-10706500D01*
X19491071Y-10777929D01*
X19476786Y-10835072D01*
X19462500Y-10863643D01*
X19448214Y-10877929D01*
X19419643Y-10892214D01*
X19391071Y-10892214D01*
X19362500Y-10877929D01*
X19348214Y-10863643D01*
X19333928Y-10835072D01*
X19319643Y-10777929D01*
X19319643Y-10706500D01*
X19333928Y-10649357D01*
X19348214Y-10620786D01*
X19362500Y-10606500D01*
X19391071Y-10592214D01*
X19619643Y-10863643D02*
X19633928Y-10877929D01*
X19619643Y-10892214D01*
X19605357Y-10877929D01*
X19619643Y-10863643D01*
X19619643Y-10892214D01*
X19905357Y-10592214D02*
X19762500Y-10592214D01*
X19748214Y-10735072D01*
X19762500Y-10720786D01*
X19791071Y-10706500D01*
X19862500Y-10706500D01*
X19891071Y-10720786D01*
X19905357Y-10735072D01*
X19919643Y-10763643D01*
X19919643Y-10835072D01*
X19905357Y-10863643D01*
X19891071Y-10877929D01*
X19862500Y-10892214D01*
X19791071Y-10892214D01*
X19762500Y-10877929D01*
X19748214Y-10863643D01*
X20105357Y-10592214D02*
X20133928Y-10592214D01*
X20162500Y-10606500D01*
X20176786Y-10620786D01*
X20191071Y-10649357D01*
X20205357Y-10706500D01*
X20205357Y-10777929D01*
X20191071Y-10835072D01*
X20176786Y-10863643D01*
X20162500Y-10877929D01*
X20133928Y-10892214D01*
X20105357Y-10892214D01*
X20076786Y-10877929D01*
X20062500Y-10863643D01*
X20048214Y-10835072D01*
X20033928Y-10777929D01*
X20033928Y-10706500D01*
X20048214Y-10649357D01*
X20062500Y-10620786D01*
X20076786Y-10606500D01*
X20105357Y-10592214D01*
X20391071Y-10592214D02*
X20419643Y-10592214D01*
X20448214Y-10606500D01*
X20462500Y-10620786D01*
X20476786Y-10649357D01*
X20491071Y-10706500D01*
X20491071Y-10777929D01*
X20476786Y-10835072D01*
X20462500Y-10863643D01*
X20448214Y-10877929D01*
X20419643Y-10892214D01*
X20391071Y-10892214D01*
X20362500Y-10877929D01*
X20348214Y-10863643D01*
X20333928Y-10835072D01*
X20319643Y-10777929D01*
X20319643Y-10706500D01*
X20333928Y-10649357D01*
X20348214Y-10620786D01*
X20362500Y-10606500D01*
X20391071Y-10592214D01*
X20619643Y-10892214D02*
X20619643Y-10692214D01*
X20619643Y-10720786D02*
X20633928Y-10706500D01*
X20662500Y-10692214D01*
X20705357Y-10692214D01*
X20733928Y-10706500D01*
X20748214Y-10735072D01*
X20748214Y-10892214D01*
X20748214Y-10735072D02*
X20762500Y-10706500D01*
X20791071Y-10692214D01*
X20833928Y-10692214D01*
X20862500Y-10706500D01*
X20876786Y-10735072D01*
X20876786Y-10892214D01*
X21019643Y-10892214D02*
X21019643Y-10692214D01*
X21019643Y-10720786D02*
X21033928Y-10706500D01*
X21062500Y-10692214D01*
X21105357Y-10692214D01*
X21133928Y-10706500D01*
X21148214Y-10735072D01*
X21148214Y-10892214D01*
X21148214Y-10735072D02*
X21162500Y-10706500D01*
X21191071Y-10692214D01*
X21233928Y-10692214D01*
X21262500Y-10706500D01*
X21276786Y-10735072D01*
X21276786Y-10892214D01*
X21862500Y-10577929D02*
X21605357Y-10963643D01*
X22248214Y-10592214D02*
X22276786Y-10592214D01*
X22305357Y-10606500D01*
X22319643Y-10620786D01*
X22333928Y-10649357D01*
X22348214Y-10706500D01*
X22348214Y-10777929D01*
X22333928Y-10835072D01*
X22319643Y-10863643D01*
X22305357Y-10877929D01*
X22276786Y-10892214D01*
X22248214Y-10892214D01*
X22219643Y-10877929D01*
X22205357Y-10863643D01*
X22191071Y-10835072D01*
X22176786Y-10777929D01*
X22176786Y-10706500D01*
X22191071Y-10649357D01*
X22205357Y-10620786D01*
X22219643Y-10606500D01*
X22248214Y-10592214D01*
X22476786Y-10863643D02*
X22491071Y-10877929D01*
X22476786Y-10892214D01*
X22462500Y-10877929D01*
X22476786Y-10863643D01*
X22476786Y-10892214D01*
X22676786Y-10592214D02*
X22705357Y-10592214D01*
X22733928Y-10606500D01*
X22748214Y-10620786D01*
X22762500Y-10649357D01*
X22776786Y-10706500D01*
X22776786Y-10777929D01*
X22762500Y-10835072D01*
X22748214Y-10863643D01*
X22733928Y-10877929D01*
X22705357Y-10892214D01*
X22676786Y-10892214D01*
X22648214Y-10877929D01*
X22633928Y-10863643D01*
X22619643Y-10835072D01*
X22605357Y-10777929D01*
X22605357Y-10706500D01*
X22619643Y-10649357D01*
X22633928Y-10620786D01*
X22648214Y-10606500D01*
X22676786Y-10592214D01*
X23062500Y-10892214D02*
X22891071Y-10892214D01*
X22976786Y-10892214D02*
X22976786Y-10592214D01*
X22948214Y-10635072D01*
X22919643Y-10663643D01*
X22891071Y-10677929D01*
X23205357Y-10892214D02*
X23262500Y-10892214D01*
X23291071Y-10877929D01*
X23305357Y-10863643D01*
X23333928Y-10820786D01*
X23348214Y-10763643D01*
X23348214Y-10649357D01*
X23333928Y-10620786D01*
X23319643Y-10606500D01*
X23291071Y-10592214D01*
X23233928Y-10592214D01*
X23205357Y-10606500D01*
X23191071Y-10620786D01*
X23176786Y-10649357D01*
X23176786Y-10720786D01*
X23191071Y-10749357D01*
X23205357Y-10763643D01*
X23233928Y-10777929D01*
X23291071Y-10777929D01*
X23319643Y-10763643D01*
X23333928Y-10749357D01*
X23348214Y-10720786D01*
X23448214Y-10592214D02*
X23648214Y-10592214D01*
X23519643Y-10892214D01*
X23748214Y-10592214D02*
X23748214Y-10649357D01*
X23862500Y-10592214D02*
X23862500Y-10649357D01*
X24305357Y-11006500D02*
X24291071Y-10992214D01*
X24262500Y-10949357D01*
X24248214Y-10920786D01*
X24233928Y-10877929D01*
X24219643Y-10806500D01*
X24219643Y-10749357D01*
X24233928Y-10677929D01*
X24248214Y-10635072D01*
X24262500Y-10606500D01*
X24291071Y-10563643D01*
X24305357Y-10549357D01*
X24548214Y-10592214D02*
X24491071Y-10592214D01*
X24462500Y-10606500D01*
X24448214Y-10620786D01*
X24419643Y-10663643D01*
X24405357Y-10720786D01*
X24405357Y-10835072D01*
X24419643Y-10863643D01*
X24433928Y-10877929D01*
X24462500Y-10892214D01*
X24519643Y-10892214D01*
X24548214Y-10877929D01*
X24562500Y-10863643D01*
X24576786Y-10835072D01*
X24576786Y-10763643D01*
X24562500Y-10735072D01*
X24548214Y-10720786D01*
X24519643Y-10706500D01*
X24462500Y-10706500D01*
X24433928Y-10720786D01*
X24419643Y-10735072D01*
X24405357Y-10763643D01*
X24933928Y-10892214D02*
X24933928Y-10592214D01*
X25062500Y-10892214D02*
X25062500Y-10735072D01*
X25048214Y-10706500D01*
X25019643Y-10692214D01*
X24976786Y-10692214D01*
X24948214Y-10706500D01*
X24933928Y-10720786D01*
X25248214Y-10892214D02*
X25219643Y-10877929D01*
X25205357Y-10863643D01*
X25191071Y-10835072D01*
X25191071Y-10749357D01*
X25205357Y-10720786D01*
X25219643Y-10706500D01*
X25248214Y-10692214D01*
X25291071Y-10692214D01*
X25319643Y-10706500D01*
X25333928Y-10720786D01*
X25348214Y-10749357D01*
X25348214Y-10835072D01*
X25333928Y-10863643D01*
X25319643Y-10877929D01*
X25291071Y-10892214D01*
X25248214Y-10892214D01*
X25519643Y-10892214D02*
X25491071Y-10877929D01*
X25476786Y-10849357D01*
X25476786Y-10592214D01*
X25748214Y-10877929D02*
X25719643Y-10892214D01*
X25662500Y-10892214D01*
X25633928Y-10877929D01*
X25619643Y-10849357D01*
X25619643Y-10735072D01*
X25633928Y-10706500D01*
X25662500Y-10692214D01*
X25719643Y-10692214D01*
X25748214Y-10706500D01*
X25762500Y-10735072D01*
X25762500Y-10763643D01*
X25619643Y-10792214D01*
X25876786Y-10877929D02*
X25905357Y-10892214D01*
X25962500Y-10892214D01*
X25991071Y-10877929D01*
X26005357Y-10849357D01*
X26005357Y-10835072D01*
X25991071Y-10806500D01*
X25962500Y-10792214D01*
X25919643Y-10792214D01*
X25891071Y-10777929D01*
X25876786Y-10749357D01*
X25876786Y-10735072D01*
X25891071Y-10706500D01*
X25919643Y-10692214D01*
X25962500Y-10692214D01*
X25991071Y-10706500D01*
X26105357Y-11006500D02*
X26119643Y-10992214D01*
X26148214Y-10949357D01*
X26162500Y-10920786D01*
X26176786Y-10877929D01*
X26191071Y-10806500D01*
X26191071Y-10749357D01*
X26176786Y-10677929D01*
X26162500Y-10635072D01*
X26148214Y-10606500D01*
X26119643Y-10563643D01*
X26105357Y-10549357D01*
X19015000Y-11120000D02*
X19015000Y-11185000D01*
X18982500Y-11152500D02*
X19047500Y-11152500D01*
X19391071Y-10988214D02*
X19419643Y-10988214D01*
X19448214Y-11002500D01*
X19462500Y-11016786D01*
X19476786Y-11045357D01*
X19491071Y-11102500D01*
X19491071Y-11173929D01*
X19476786Y-11231071D01*
X19462500Y-11259643D01*
X19448214Y-11273929D01*
X19419643Y-11288214D01*
X19391071Y-11288214D01*
X19362500Y-11273929D01*
X19348214Y-11259643D01*
X19333928Y-11231071D01*
X19319643Y-11173929D01*
X19319643Y-11102500D01*
X19333928Y-11045357D01*
X19348214Y-11016786D01*
X19362500Y-11002500D01*
X19391071Y-10988214D01*
X19619643Y-11259643D02*
X19633928Y-11273929D01*
X19619643Y-11288214D01*
X19605357Y-11273929D01*
X19619643Y-11259643D01*
X19619643Y-11288214D01*
X19891071Y-10988214D02*
X19833928Y-10988214D01*
X19805357Y-11002500D01*
X19791071Y-11016786D01*
X19762500Y-11059643D01*
X19748214Y-11116786D01*
X19748214Y-11231071D01*
X19762500Y-11259643D01*
X19776786Y-11273929D01*
X19805357Y-11288214D01*
X19862500Y-11288214D01*
X19891071Y-11273929D01*
X19905357Y-11259643D01*
X19919643Y-11231071D01*
X19919643Y-11159643D01*
X19905357Y-11131072D01*
X19891071Y-11116786D01*
X19862500Y-11102500D01*
X19805357Y-11102500D01*
X19776786Y-11116786D01*
X19762500Y-11131072D01*
X19748214Y-11159643D01*
X20191071Y-10988214D02*
X20048214Y-10988214D01*
X20033928Y-11131072D01*
X20048214Y-11116786D01*
X20076786Y-11102500D01*
X20148214Y-11102500D01*
X20176786Y-11116786D01*
X20191071Y-11131072D01*
X20205357Y-11159643D01*
X20205357Y-11231071D01*
X20191071Y-11259643D01*
X20176786Y-11273929D01*
X20148214Y-11288214D01*
X20076786Y-11288214D01*
X20048214Y-11273929D01*
X20033928Y-11259643D01*
X20391071Y-10988214D02*
X20419643Y-10988214D01*
X20448214Y-11002500D01*
X20462500Y-11016786D01*
X20476786Y-11045357D01*
X20491071Y-11102500D01*
X20491071Y-11173929D01*
X20476786Y-11231071D01*
X20462500Y-11259643D01*
X20448214Y-11273929D01*
X20419643Y-11288214D01*
X20391071Y-11288214D01*
X20362500Y-11273929D01*
X20348214Y-11259643D01*
X20333928Y-11231071D01*
X20319643Y-11173929D01*
X20319643Y-11102500D01*
X20333928Y-11045357D01*
X20348214Y-11016786D01*
X20362500Y-11002500D01*
X20391071Y-10988214D01*
X20619643Y-11288214D02*
X20619643Y-11088214D01*
X20619643Y-11116786D02*
X20633928Y-11102500D01*
X20662500Y-11088214D01*
X20705357Y-11088214D01*
X20733928Y-11102500D01*
X20748214Y-11131072D01*
X20748214Y-11288214D01*
X20748214Y-11131072D02*
X20762500Y-11102500D01*
X20791071Y-11088214D01*
X20833928Y-11088214D01*
X20862500Y-11102500D01*
X20876786Y-11131072D01*
X20876786Y-11288214D01*
X21019643Y-11288214D02*
X21019643Y-11088214D01*
X21019643Y-11116786D02*
X21033928Y-11102500D01*
X21062500Y-11088214D01*
X21105357Y-11088214D01*
X21133928Y-11102500D01*
X21148214Y-11131072D01*
X21148214Y-11288214D01*
X21148214Y-11131072D02*
X21162500Y-11102500D01*
X21191071Y-11088214D01*
X21233928Y-11088214D01*
X21262500Y-11102500D01*
X21276786Y-11131072D01*
X21276786Y-11288214D01*
X21862500Y-10973929D02*
X21605357Y-11359643D01*
X22248214Y-10988214D02*
X22276786Y-10988214D01*
X22305357Y-11002500D01*
X22319643Y-11016786D01*
X22333928Y-11045357D01*
X22348214Y-11102500D01*
X22348214Y-11173929D01*
X22333928Y-11231071D01*
X22319643Y-11259643D01*
X22305357Y-11273929D01*
X22276786Y-11288214D01*
X22248214Y-11288214D01*
X22219643Y-11273929D01*
X22205357Y-11259643D01*
X22191071Y-11231071D01*
X22176786Y-11173929D01*
X22176786Y-11102500D01*
X22191071Y-11045357D01*
X22205357Y-11016786D01*
X22219643Y-11002500D01*
X22248214Y-10988214D01*
X22476786Y-11259643D02*
X22491071Y-11273929D01*
X22476786Y-11288214D01*
X22462500Y-11273929D01*
X22476786Y-11259643D01*
X22476786Y-11288214D01*
X22676786Y-10988214D02*
X22705357Y-10988214D01*
X22733928Y-11002500D01*
X22748214Y-11016786D01*
X22762500Y-11045357D01*
X22776786Y-11102500D01*
X22776786Y-11173929D01*
X22762500Y-11231071D01*
X22748214Y-11259643D01*
X22733928Y-11273929D01*
X22705357Y-11288214D01*
X22676786Y-11288214D01*
X22648214Y-11273929D01*
X22633928Y-11259643D01*
X22619643Y-11231071D01*
X22605357Y-11173929D01*
X22605357Y-11102500D01*
X22619643Y-11045357D01*
X22633928Y-11016786D01*
X22648214Y-11002500D01*
X22676786Y-10988214D01*
X22891071Y-11016786D02*
X22905357Y-11002500D01*
X22933928Y-10988214D01*
X23005357Y-10988214D01*
X23033928Y-11002500D01*
X23048214Y-11016786D01*
X23062500Y-11045357D01*
X23062500Y-11073929D01*
X23048214Y-11116786D01*
X22876786Y-11288214D01*
X23062500Y-11288214D01*
X23333928Y-10988214D02*
X23191071Y-10988214D01*
X23176786Y-11131072D01*
X23191071Y-11116786D01*
X23219643Y-11102500D01*
X23291071Y-11102500D01*
X23319643Y-11116786D01*
X23333928Y-11131072D01*
X23348214Y-11159643D01*
X23348214Y-11231071D01*
X23333928Y-11259643D01*
X23319643Y-11273929D01*
X23291071Y-11288214D01*
X23219643Y-11288214D01*
X23191071Y-11273929D01*
X23176786Y-11259643D01*
X23605357Y-10988214D02*
X23548214Y-10988214D01*
X23519643Y-11002500D01*
X23505357Y-11016786D01*
X23476786Y-11059643D01*
X23462500Y-11116786D01*
X23462500Y-11231071D01*
X23476786Y-11259643D01*
X23491071Y-11273929D01*
X23519643Y-11288214D01*
X23576786Y-11288214D01*
X23605357Y-11273929D01*
X23619643Y-11259643D01*
X23633928Y-11231071D01*
X23633928Y-11159643D01*
X23619643Y-11131072D01*
X23605357Y-11116786D01*
X23576786Y-11102500D01*
X23519643Y-11102500D01*
X23491071Y-11116786D01*
X23476786Y-11131072D01*
X23462500Y-11159643D01*
X23748214Y-10988214D02*
X23748214Y-11045357D01*
X23862500Y-10988214D02*
X23862500Y-11045357D01*
X24305357Y-11402500D02*
X24291071Y-11388214D01*
X24262500Y-11345357D01*
X24248214Y-11316786D01*
X24233928Y-11273929D01*
X24219643Y-11202500D01*
X24219643Y-11145357D01*
X24233928Y-11073929D01*
X24248214Y-11031072D01*
X24262500Y-11002500D01*
X24291071Y-10959643D01*
X24305357Y-10945357D01*
X24576786Y-11288214D02*
X24405357Y-11288214D01*
X24491071Y-11288214D02*
X24491071Y-10988214D01*
X24462500Y-11031072D01*
X24433928Y-11059643D01*
X24405357Y-11073929D01*
X24762500Y-10988214D02*
X24791071Y-10988214D01*
X24819643Y-11002500D01*
X24833928Y-11016786D01*
X24848214Y-11045357D01*
X24862500Y-11102500D01*
X24862500Y-11173929D01*
X24848214Y-11231071D01*
X24833928Y-11259643D01*
X24819643Y-11273929D01*
X24791071Y-11288214D01*
X24762500Y-11288214D01*
X24733928Y-11273929D01*
X24719643Y-11259643D01*
X24705357Y-11231071D01*
X24691071Y-11173929D01*
X24691071Y-11102500D01*
X24705357Y-11045357D01*
X24719643Y-11016786D01*
X24733928Y-11002500D01*
X24762500Y-10988214D01*
X25219643Y-11288214D02*
X25219643Y-10988214D01*
X25348214Y-11288214D02*
X25348214Y-11131072D01*
X25333928Y-11102500D01*
X25305357Y-11088214D01*
X25262500Y-11088214D01*
X25233928Y-11102500D01*
X25219643Y-11116786D01*
X25533928Y-11288214D02*
X25505357Y-11273929D01*
X25491071Y-11259643D01*
X25476786Y-11231071D01*
X25476786Y-11145357D01*
X25491071Y-11116786D01*
X25505357Y-11102500D01*
X25533928Y-11088214D01*
X25576786Y-11088214D01*
X25605357Y-11102500D01*
X25619643Y-11116786D01*
X25633928Y-11145357D01*
X25633928Y-11231071D01*
X25619643Y-11259643D01*
X25605357Y-11273929D01*
X25576786Y-11288214D01*
X25533928Y-11288214D01*
X25805357Y-11288214D02*
X25776786Y-11273929D01*
X25762500Y-11245357D01*
X25762500Y-10988214D01*
X26033928Y-11273929D02*
X26005357Y-11288214D01*
X25948214Y-11288214D01*
X25919643Y-11273929D01*
X25905357Y-11245357D01*
X25905357Y-11131072D01*
X25919643Y-11102500D01*
X25948214Y-11088214D01*
X26005357Y-11088214D01*
X26033928Y-11102500D01*
X26048214Y-11131072D01*
X26048214Y-11159643D01*
X25905357Y-11188214D01*
X26162500Y-11273929D02*
X26191071Y-11288214D01*
X26248214Y-11288214D01*
X26276786Y-11273929D01*
X26291071Y-11245357D01*
X26291071Y-11231071D01*
X26276786Y-11202500D01*
X26248214Y-11188214D01*
X26205357Y-11188214D01*
X26176786Y-11173929D01*
X26162500Y-11145357D01*
X26162500Y-11131072D01*
X26176786Y-11102500D01*
X26205357Y-11088214D01*
X26248214Y-11088214D01*
X26276786Y-11102500D01*
X26391071Y-11402500D02*
X26405357Y-11388214D01*
X26433928Y-11345357D01*
X26448214Y-11316786D01*
X26462500Y-11273929D01*
X26476786Y-11202500D01*
X26476786Y-11145357D01*
X26462500Y-11073929D01*
X26448214Y-11031072D01*
X26433928Y-11002500D01*
X26405357Y-10959643D01*
X26391071Y-10945357D01*
M02*
