%FSLAX45Y45*%
G04 Gerber Fmt 4.5, Leading zero omitted, Abs format (unit mm)*
G04 Created by KiCad (PCBNEW (5.1.12)-1) date 2022-02-08 18:52:23*
%MOMM*%
%LPD*%
G01*
G04 APERTURE LIST*
%TA.AperFunction,Profile*%
%ADD10C,0.050000*%
%TD*%
%ADD11C,0.200000*%
%ADD12C,0.300000*%
G04 APERTURE END LIST*
D10*
X22098000Y-6350000D02*
X22098000Y-9398000D01*
X19050000Y-6350000D02*
X22098000Y-6350000D01*
X22098000Y-9398000D02*
X19050000Y-9398000D01*
X19050000Y-9398000D02*
X19050000Y-6350000D01*
D11*
D12*
X19333928Y-9866214D02*
X19333928Y-9566214D01*
X19405357Y-9566214D01*
X19448214Y-9580500D01*
X19476786Y-9609072D01*
X19491071Y-9637643D01*
X19505357Y-9694786D01*
X19505357Y-9737643D01*
X19491071Y-9794786D01*
X19476786Y-9823357D01*
X19448214Y-9851929D01*
X19405357Y-9866214D01*
X19333928Y-9866214D01*
X19633928Y-9866214D02*
X19633928Y-9666214D01*
X19633928Y-9723357D02*
X19648214Y-9694786D01*
X19662500Y-9680500D01*
X19691071Y-9666214D01*
X19719643Y-9666214D01*
X19819643Y-9866214D02*
X19819643Y-9666214D01*
X19819643Y-9566214D02*
X19805357Y-9580500D01*
X19819643Y-9594786D01*
X19833928Y-9580500D01*
X19819643Y-9566214D01*
X19819643Y-9594786D01*
X20005357Y-9866214D02*
X19976786Y-9851929D01*
X19962500Y-9823357D01*
X19962500Y-9566214D01*
X20162500Y-9866214D02*
X20133928Y-9851929D01*
X20119643Y-9823357D01*
X20119643Y-9566214D01*
X20505357Y-9866214D02*
X20505357Y-9566214D01*
X20605357Y-9780500D01*
X20705357Y-9566214D01*
X20705357Y-9866214D01*
X20976786Y-9866214D02*
X20976786Y-9709072D01*
X20962500Y-9680500D01*
X20933928Y-9666214D01*
X20876786Y-9666214D01*
X20848214Y-9680500D01*
X20976786Y-9851929D02*
X20948214Y-9866214D01*
X20876786Y-9866214D01*
X20848214Y-9851929D01*
X20833928Y-9823357D01*
X20833928Y-9794786D01*
X20848214Y-9766214D01*
X20876786Y-9751929D01*
X20948214Y-9751929D01*
X20976786Y-9737643D01*
X21119643Y-9666214D02*
X21119643Y-9966214D01*
X21119643Y-9680500D02*
X21148214Y-9666214D01*
X21205357Y-9666214D01*
X21233928Y-9680500D01*
X21248214Y-9694786D01*
X21262500Y-9723357D01*
X21262500Y-9809072D01*
X21248214Y-9837643D01*
X21233928Y-9851929D01*
X21205357Y-9866214D01*
X21148214Y-9866214D01*
X21119643Y-9851929D01*
X21391071Y-9837643D02*
X21405357Y-9851929D01*
X21391071Y-9866214D01*
X21376786Y-9851929D01*
X21391071Y-9837643D01*
X21391071Y-9866214D01*
X21391071Y-9680500D02*
X21405357Y-9694786D01*
X21391071Y-9709072D01*
X21376786Y-9694786D01*
X21391071Y-9680500D01*
X21391071Y-9709072D01*
M02*
