M48
; DRILL file {KiCad (5.1.12)-1} date 02/08/22 18:51:20
; FORMAT={-:-/ absolute / metric / decimal}
; #@! TF.CreationDate,2022-02-08T18:51:20+00:00
; #@! TF.GenerationSoftware,Kicad,Pcbnew,(5.1.12)-1
; #@! TF.FileFunction,Plated,1,2,PTH
FMAT,2
METRIC
T1C0.400
T2C0.500
T3C0.650
%
G90
G05
T1
X193.47Y-72.39
X195.58Y-73.66
X196.85Y-73.66
X198.12Y-67.31
X199.39Y-88.9
X200.095Y-85.09
X200.66Y-76.2
X200.66Y-82.55
X200.66Y-82.55
X202.77Y-80.01
X202.77Y-82.55
X205.74Y-77.47
X212.09Y-68.58
X218.44Y-72.39
T2
X193.04Y-85.09
X193.04Y-88.9
X196.85Y-85.09
X196.85Y-88.9
X200.66Y-91.44
X210.82Y-91.44
T3
X210.82Y-67.31
X212.09Y-67.31
X213.36Y-67.31
X214.63Y-67.31
X217.17Y-83.82
X217.17Y-85.09
X217.17Y-86.36
X217.17Y-87.63
X217.17Y-88.9
X217.17Y-90.17
T0
M30
