%TF.GenerationSoftware,KiCad,Pcbnew,(5.1.12)-1*%
%TF.CreationDate,2022-02-08T18:48:31+00:00*%
%TF.ProjectId,Watch_PCB_V2,57617463-685f-4504-9342-5f56322e6b69,rev?*%
%TF.SameCoordinates,Original*%
%TF.FileFunction,Legend,Top*%
%TF.FilePolarity,Positive*%
%FSLAX46Y46*%
G04 Gerber Fmt 4.6, Leading zero omitted, Abs format (unit mm)*
G04 Created by KiCad (PCBNEW (5.1.12)-1) date 2022-02-08 18:48:31*
%MOMM*%
%LPD*%
G01*
G04 APERTURE LIST*
%ADD10C,0.120000*%
%ADD11C,0.150000*%
%ADD12O,1.000000X1.000000*%
%ADD13R,1.000000X1.000000*%
%ADD14R,0.850000X0.850000*%
%ADD15R,1.600000X0.550000*%
%ADD16R,0.550000X1.600000*%
G04 APERTURE END LIST*
D10*
%TO.C,ICSP_PORT1*%
X218280000Y-90930000D02*
X217170000Y-90930000D01*
X218280000Y-90170000D02*
X218280000Y-90930000D01*
X216606529Y-89410000D02*
X216060000Y-89410000D01*
X218280000Y-89410000D02*
X217733471Y-89410000D01*
X216060000Y-89410000D02*
X216060000Y-83125000D01*
X218280000Y-89410000D02*
X218280000Y-83125000D01*
X216862470Y-83125000D02*
X216060000Y-83125000D01*
X218280000Y-83125000D02*
X217477530Y-83125000D01*
%TO.C,OLED*%
X210060000Y-68420000D02*
X210060000Y-67310000D01*
X210820000Y-68420000D02*
X210060000Y-68420000D01*
X211580000Y-66746529D02*
X211580000Y-66200000D01*
X211580000Y-68420000D02*
X211580000Y-67873471D01*
X211580000Y-66200000D02*
X215325000Y-66200000D01*
X211580000Y-68420000D02*
X215325000Y-68420000D01*
X215325000Y-67002470D02*
X215325000Y-66200000D01*
X215325000Y-68420000D02*
X215325000Y-67617530D01*
%TO.C,C1*%
X205321248Y-90530000D02*
X206743752Y-90530000D01*
X205321248Y-92350000D02*
X206743752Y-92350000D01*
%TO.C,GND1*%
X210125000Y-92125000D02*
X211515000Y-92125000D01*
X210125000Y-92125000D02*
X210125000Y-92000000D01*
X211515000Y-92125000D02*
X211515000Y-92000000D01*
X210125000Y-92125000D02*
X210211724Y-92125000D01*
X211428276Y-92125000D02*
X211515000Y-92125000D01*
X210125000Y-91440000D02*
X210125000Y-90755000D01*
X210125000Y-90755000D02*
X210820000Y-90755000D01*
%TO.C,LB*%
X192345000Y-85775000D02*
X193735000Y-85775000D01*
X192345000Y-85775000D02*
X192345000Y-85650000D01*
X193735000Y-85775000D02*
X193735000Y-85650000D01*
X192345000Y-85775000D02*
X192431724Y-85775000D01*
X193648276Y-85775000D02*
X193735000Y-85775000D01*
X192345000Y-85090000D02*
X192345000Y-84405000D01*
X192345000Y-84405000D02*
X193040000Y-84405000D01*
%TO.C,LBI*%
X192345000Y-89585000D02*
X193735000Y-89585000D01*
X192345000Y-89585000D02*
X192345000Y-89460000D01*
X193735000Y-89585000D02*
X193735000Y-89460000D01*
X192345000Y-89585000D02*
X192431724Y-89585000D01*
X193648276Y-89585000D02*
X193735000Y-89585000D01*
X192345000Y-88900000D02*
X192345000Y-88215000D01*
X192345000Y-88215000D02*
X193040000Y-88215000D01*
D11*
%TO.C,MCU*%
X194495000Y-72575000D02*
X194495000Y-72800000D01*
X201745000Y-72575000D02*
X201745000Y-72900000D01*
X201745000Y-79825000D02*
X201745000Y-79500000D01*
X194495000Y-79825000D02*
X194495000Y-79500000D01*
X194495000Y-72575000D02*
X194820000Y-72575000D01*
X194495000Y-79825000D02*
X194820000Y-79825000D01*
X201745000Y-79825000D02*
X201420000Y-79825000D01*
X201745000Y-72575000D02*
X201420000Y-72575000D01*
X194495000Y-72800000D02*
X193070000Y-72800000D01*
D10*
%TO.C,R1*%
X201020000Y-87087064D02*
X201020000Y-85632936D01*
X202840000Y-87087064D02*
X202840000Y-85632936D01*
%TO.C,R2*%
X201482936Y-68220000D02*
X202937064Y-68220000D01*
X201482936Y-66400000D02*
X202937064Y-66400000D01*
%TO.C,R3*%
X195132936Y-66400000D02*
X196587064Y-66400000D01*
X195132936Y-68220000D02*
X196587064Y-68220000D01*
%TO.C,RB*%
X196155000Y-84405000D02*
X196850000Y-84405000D01*
X196155000Y-85090000D02*
X196155000Y-84405000D01*
X197458276Y-85775000D02*
X197545000Y-85775000D01*
X196155000Y-85775000D02*
X196241724Y-85775000D01*
X197545000Y-85775000D02*
X197545000Y-85650000D01*
X196155000Y-85775000D02*
X196155000Y-85650000D01*
X196155000Y-85775000D02*
X197545000Y-85775000D01*
%TO.C,RBI*%
X196155000Y-88215000D02*
X196850000Y-88215000D01*
X196155000Y-88900000D02*
X196155000Y-88215000D01*
X197458276Y-89585000D02*
X197545000Y-89585000D01*
X196155000Y-89585000D02*
X196241724Y-89585000D01*
X197545000Y-89585000D02*
X197545000Y-89460000D01*
X196155000Y-89585000D02*
X196155000Y-89460000D01*
X196155000Y-89585000D02*
X197545000Y-89585000D01*
%TO.C,RTC*%
X212090000Y-81460000D02*
X215950000Y-81460000D01*
X215950000Y-81460000D02*
X215950000Y-81205000D01*
X212090000Y-81460000D02*
X208230000Y-81460000D01*
X208230000Y-81460000D02*
X208230000Y-81205000D01*
X212090000Y-70940000D02*
X215950000Y-70940000D01*
X215950000Y-70940000D02*
X215950000Y-71195000D01*
X212090000Y-70940000D02*
X208230000Y-70940000D01*
X208230000Y-70940000D02*
X208230000Y-71195000D01*
X208230000Y-71195000D02*
X206415000Y-71195000D01*
%TO.C,VDD1*%
X199965000Y-90755000D02*
X200660000Y-90755000D01*
X199965000Y-91440000D02*
X199965000Y-90755000D01*
X201268276Y-92125000D02*
X201355000Y-92125000D01*
X199965000Y-92125000D02*
X200051724Y-92125000D01*
X201355000Y-92125000D02*
X201355000Y-92000000D01*
X199965000Y-92125000D02*
X199965000Y-92000000D01*
X199965000Y-92125000D02*
X201355000Y-92125000D01*
%TO.C,ICSP_PORT1*%
D11*
X215082380Y-90598095D02*
X214082380Y-90598095D01*
X214987142Y-89550476D02*
X215034761Y-89598095D01*
X215082380Y-89740952D01*
X215082380Y-89836190D01*
X215034761Y-89979047D01*
X214939523Y-90074285D01*
X214844285Y-90121904D01*
X214653809Y-90169523D01*
X214510952Y-90169523D01*
X214320476Y-90121904D01*
X214225238Y-90074285D01*
X214130000Y-89979047D01*
X214082380Y-89836190D01*
X214082380Y-89740952D01*
X214130000Y-89598095D01*
X214177619Y-89550476D01*
X215034761Y-89169523D02*
X215082380Y-89026666D01*
X215082380Y-88788571D01*
X215034761Y-88693333D01*
X214987142Y-88645714D01*
X214891904Y-88598095D01*
X214796666Y-88598095D01*
X214701428Y-88645714D01*
X214653809Y-88693333D01*
X214606190Y-88788571D01*
X214558571Y-88979047D01*
X214510952Y-89074285D01*
X214463333Y-89121904D01*
X214368095Y-89169523D01*
X214272857Y-89169523D01*
X214177619Y-89121904D01*
X214130000Y-89074285D01*
X214082380Y-88979047D01*
X214082380Y-88740952D01*
X214130000Y-88598095D01*
X215082380Y-88169523D02*
X214082380Y-88169523D01*
X214082380Y-87788571D01*
X214130000Y-87693333D01*
X214177619Y-87645714D01*
X214272857Y-87598095D01*
X214415714Y-87598095D01*
X214510952Y-87645714D01*
X214558571Y-87693333D01*
X214606190Y-87788571D01*
X214606190Y-88169523D01*
X215177619Y-87407619D02*
X215177619Y-86645714D01*
X215082380Y-86407619D02*
X214082380Y-86407619D01*
X214082380Y-86026666D01*
X214130000Y-85931428D01*
X214177619Y-85883809D01*
X214272857Y-85836190D01*
X214415714Y-85836190D01*
X214510952Y-85883809D01*
X214558571Y-85931428D01*
X214606190Y-86026666D01*
X214606190Y-86407619D01*
X214082380Y-85217142D02*
X214082380Y-85026666D01*
X214130000Y-84931428D01*
X214225238Y-84836190D01*
X214415714Y-84788571D01*
X214749047Y-84788571D01*
X214939523Y-84836190D01*
X215034761Y-84931428D01*
X215082380Y-85026666D01*
X215082380Y-85217142D01*
X215034761Y-85312380D01*
X214939523Y-85407619D01*
X214749047Y-85455238D01*
X214415714Y-85455238D01*
X214225238Y-85407619D01*
X214130000Y-85312380D01*
X214082380Y-85217142D01*
X215082380Y-83788571D02*
X214606190Y-84121904D01*
X215082380Y-84360000D02*
X214082380Y-84360000D01*
X214082380Y-83979047D01*
X214130000Y-83883809D01*
X214177619Y-83836190D01*
X214272857Y-83788571D01*
X214415714Y-83788571D01*
X214510952Y-83836190D01*
X214558571Y-83883809D01*
X214606190Y-83979047D01*
X214606190Y-84360000D01*
X214082380Y-83502857D02*
X214082380Y-82931428D01*
X215082380Y-83217142D02*
X214082380Y-83217142D01*
X215082380Y-82074285D02*
X215082380Y-82645714D01*
X215082380Y-82360000D02*
X214082380Y-82360000D01*
X214225238Y-82455238D01*
X214320476Y-82550476D01*
X214368095Y-82645714D01*
%TO.C,OLED*%
X211907619Y-64222380D02*
X212098095Y-64222380D01*
X212193333Y-64270000D01*
X212288571Y-64365238D01*
X212336190Y-64555714D01*
X212336190Y-64889047D01*
X212288571Y-65079523D01*
X212193333Y-65174761D01*
X212098095Y-65222380D01*
X211907619Y-65222380D01*
X211812380Y-65174761D01*
X211717142Y-65079523D01*
X211669523Y-64889047D01*
X211669523Y-64555714D01*
X211717142Y-64365238D01*
X211812380Y-64270000D01*
X211907619Y-64222380D01*
X213240952Y-65222380D02*
X212764761Y-65222380D01*
X212764761Y-64222380D01*
X213574285Y-64698571D02*
X213907619Y-64698571D01*
X214050476Y-65222380D02*
X213574285Y-65222380D01*
X213574285Y-64222380D01*
X214050476Y-64222380D01*
X214479047Y-65222380D02*
X214479047Y-64222380D01*
X214717142Y-64222380D01*
X214860000Y-64270000D01*
X214955238Y-64365238D01*
X215002857Y-64460476D01*
X215050476Y-64650952D01*
X215050476Y-64793809D01*
X215002857Y-64984285D01*
X214955238Y-65079523D01*
X214860000Y-65174761D01*
X214717142Y-65222380D01*
X214479047Y-65222380D01*
%TO.C,C1*%
X205865833Y-89947142D02*
X205818214Y-89994761D01*
X205675357Y-90042380D01*
X205580119Y-90042380D01*
X205437261Y-89994761D01*
X205342023Y-89899523D01*
X205294404Y-89804285D01*
X205246785Y-89613809D01*
X205246785Y-89470952D01*
X205294404Y-89280476D01*
X205342023Y-89185238D01*
X205437261Y-89090000D01*
X205580119Y-89042380D01*
X205675357Y-89042380D01*
X205818214Y-89090000D01*
X205865833Y-89137619D01*
X206818214Y-90042380D02*
X206246785Y-90042380D01*
X206532500Y-90042380D02*
X206532500Y-89042380D01*
X206437261Y-89185238D01*
X206342023Y-89280476D01*
X206246785Y-89328095D01*
%TO.C,GND1*%
X209581904Y-89380000D02*
X209486666Y-89332380D01*
X209343809Y-89332380D01*
X209200952Y-89380000D01*
X209105714Y-89475238D01*
X209058095Y-89570476D01*
X209010476Y-89760952D01*
X209010476Y-89903809D01*
X209058095Y-90094285D01*
X209105714Y-90189523D01*
X209200952Y-90284761D01*
X209343809Y-90332380D01*
X209439047Y-90332380D01*
X209581904Y-90284761D01*
X209629523Y-90237142D01*
X209629523Y-89903809D01*
X209439047Y-89903809D01*
X210058095Y-90332380D02*
X210058095Y-89332380D01*
X210629523Y-90332380D01*
X210629523Y-89332380D01*
X211105714Y-90332380D02*
X211105714Y-89332380D01*
X211343809Y-89332380D01*
X211486666Y-89380000D01*
X211581904Y-89475238D01*
X211629523Y-89570476D01*
X211677142Y-89760952D01*
X211677142Y-89903809D01*
X211629523Y-90094285D01*
X211581904Y-90189523D01*
X211486666Y-90284761D01*
X211343809Y-90332380D01*
X211105714Y-90332380D01*
X212629523Y-90332380D02*
X212058095Y-90332380D01*
X212343809Y-90332380D02*
X212343809Y-89332380D01*
X212248571Y-89475238D01*
X212153333Y-89570476D01*
X212058095Y-89618095D01*
%TO.C,LB*%
X192849523Y-83982380D02*
X192373333Y-83982380D01*
X192373333Y-82982380D01*
X193516190Y-83458571D02*
X193659047Y-83506190D01*
X193706666Y-83553809D01*
X193754285Y-83649047D01*
X193754285Y-83791904D01*
X193706666Y-83887142D01*
X193659047Y-83934761D01*
X193563809Y-83982380D01*
X193182857Y-83982380D01*
X193182857Y-82982380D01*
X193516190Y-82982380D01*
X193611428Y-83030000D01*
X193659047Y-83077619D01*
X193706666Y-83172857D01*
X193706666Y-83268095D01*
X193659047Y-83363333D01*
X193611428Y-83410952D01*
X193516190Y-83458571D01*
X193182857Y-83458571D01*
%TO.C,LBI*%
X192611428Y-87792380D02*
X192135238Y-87792380D01*
X192135238Y-86792380D01*
X193278095Y-87268571D02*
X193420952Y-87316190D01*
X193468571Y-87363809D01*
X193516190Y-87459047D01*
X193516190Y-87601904D01*
X193468571Y-87697142D01*
X193420952Y-87744761D01*
X193325714Y-87792380D01*
X192944761Y-87792380D01*
X192944761Y-86792380D01*
X193278095Y-86792380D01*
X193373333Y-86840000D01*
X193420952Y-86887619D01*
X193468571Y-86982857D01*
X193468571Y-87078095D01*
X193420952Y-87173333D01*
X193373333Y-87220952D01*
X193278095Y-87268571D01*
X192944761Y-87268571D01*
X193944761Y-87792380D02*
X193944761Y-86792380D01*
%TO.C,MCU*%
X196762857Y-70602380D02*
X196762857Y-69602380D01*
X197096190Y-70316666D01*
X197429523Y-69602380D01*
X197429523Y-70602380D01*
X198477142Y-70507142D02*
X198429523Y-70554761D01*
X198286666Y-70602380D01*
X198191428Y-70602380D01*
X198048571Y-70554761D01*
X197953333Y-70459523D01*
X197905714Y-70364285D01*
X197858095Y-70173809D01*
X197858095Y-70030952D01*
X197905714Y-69840476D01*
X197953333Y-69745238D01*
X198048571Y-69650000D01*
X198191428Y-69602380D01*
X198286666Y-69602380D01*
X198429523Y-69650000D01*
X198477142Y-69697619D01*
X198905714Y-69602380D02*
X198905714Y-70411904D01*
X198953333Y-70507142D01*
X199000952Y-70554761D01*
X199096190Y-70602380D01*
X199286666Y-70602380D01*
X199381904Y-70554761D01*
X199429523Y-70507142D01*
X199477142Y-70411904D01*
X199477142Y-69602380D01*
%TO.C,R1*%
X200562380Y-86526666D02*
X200086190Y-86860000D01*
X200562380Y-87098095D02*
X199562380Y-87098095D01*
X199562380Y-86717142D01*
X199610000Y-86621904D01*
X199657619Y-86574285D01*
X199752857Y-86526666D01*
X199895714Y-86526666D01*
X199990952Y-86574285D01*
X200038571Y-86621904D01*
X200086190Y-86717142D01*
X200086190Y-87098095D01*
X200562380Y-85574285D02*
X200562380Y-86145714D01*
X200562380Y-85860000D02*
X199562380Y-85860000D01*
X199705238Y-85955238D01*
X199800476Y-86050476D01*
X199848095Y-86145714D01*
%TO.C,R2*%
X202043333Y-65942380D02*
X201710000Y-65466190D01*
X201471904Y-65942380D02*
X201471904Y-64942380D01*
X201852857Y-64942380D01*
X201948095Y-64990000D01*
X201995714Y-65037619D01*
X202043333Y-65132857D01*
X202043333Y-65275714D01*
X201995714Y-65370952D01*
X201948095Y-65418571D01*
X201852857Y-65466190D01*
X201471904Y-65466190D01*
X202424285Y-65037619D02*
X202471904Y-64990000D01*
X202567142Y-64942380D01*
X202805238Y-64942380D01*
X202900476Y-64990000D01*
X202948095Y-65037619D01*
X202995714Y-65132857D01*
X202995714Y-65228095D01*
X202948095Y-65370952D01*
X202376666Y-65942380D01*
X202995714Y-65942380D01*
%TO.C,R3*%
X195693333Y-65942380D02*
X195360000Y-65466190D01*
X195121904Y-65942380D02*
X195121904Y-64942380D01*
X195502857Y-64942380D01*
X195598095Y-64990000D01*
X195645714Y-65037619D01*
X195693333Y-65132857D01*
X195693333Y-65275714D01*
X195645714Y-65370952D01*
X195598095Y-65418571D01*
X195502857Y-65466190D01*
X195121904Y-65466190D01*
X196026666Y-64942380D02*
X196645714Y-64942380D01*
X196312380Y-65323333D01*
X196455238Y-65323333D01*
X196550476Y-65370952D01*
X196598095Y-65418571D01*
X196645714Y-65513809D01*
X196645714Y-65751904D01*
X196598095Y-65847142D01*
X196550476Y-65894761D01*
X196455238Y-65942380D01*
X196169523Y-65942380D01*
X196074285Y-65894761D01*
X196026666Y-65847142D01*
%TO.C,RB*%
X196659523Y-83982380D02*
X196326190Y-83506190D01*
X196088095Y-83982380D02*
X196088095Y-82982380D01*
X196469047Y-82982380D01*
X196564285Y-83030000D01*
X196611904Y-83077619D01*
X196659523Y-83172857D01*
X196659523Y-83315714D01*
X196611904Y-83410952D01*
X196564285Y-83458571D01*
X196469047Y-83506190D01*
X196088095Y-83506190D01*
X197421428Y-83458571D02*
X197564285Y-83506190D01*
X197611904Y-83553809D01*
X197659523Y-83649047D01*
X197659523Y-83791904D01*
X197611904Y-83887142D01*
X197564285Y-83934761D01*
X197469047Y-83982380D01*
X197088095Y-83982380D01*
X197088095Y-82982380D01*
X197421428Y-82982380D01*
X197516666Y-83030000D01*
X197564285Y-83077619D01*
X197611904Y-83172857D01*
X197611904Y-83268095D01*
X197564285Y-83363333D01*
X197516666Y-83410952D01*
X197421428Y-83458571D01*
X197088095Y-83458571D01*
%TO.C,RBI*%
X196421428Y-87792380D02*
X196088095Y-87316190D01*
X195850000Y-87792380D02*
X195850000Y-86792380D01*
X196230952Y-86792380D01*
X196326190Y-86840000D01*
X196373809Y-86887619D01*
X196421428Y-86982857D01*
X196421428Y-87125714D01*
X196373809Y-87220952D01*
X196326190Y-87268571D01*
X196230952Y-87316190D01*
X195850000Y-87316190D01*
X197183333Y-87268571D02*
X197326190Y-87316190D01*
X197373809Y-87363809D01*
X197421428Y-87459047D01*
X197421428Y-87601904D01*
X197373809Y-87697142D01*
X197326190Y-87744761D01*
X197230952Y-87792380D01*
X196850000Y-87792380D01*
X196850000Y-86792380D01*
X197183333Y-86792380D01*
X197278571Y-86840000D01*
X197326190Y-86887619D01*
X197373809Y-86982857D01*
X197373809Y-87078095D01*
X197326190Y-87173333D01*
X197278571Y-87220952D01*
X197183333Y-87268571D01*
X196850000Y-87268571D01*
X197850000Y-87792380D02*
X197850000Y-86792380D01*
%TO.C,RTC*%
X211518571Y-70552380D02*
X211185238Y-70076190D01*
X210947142Y-70552380D02*
X210947142Y-69552380D01*
X211328095Y-69552380D01*
X211423333Y-69600000D01*
X211470952Y-69647619D01*
X211518571Y-69742857D01*
X211518571Y-69885714D01*
X211470952Y-69980952D01*
X211423333Y-70028571D01*
X211328095Y-70076190D01*
X210947142Y-70076190D01*
X211804285Y-69552380D02*
X212375714Y-69552380D01*
X212090000Y-70552380D02*
X212090000Y-69552380D01*
X213280476Y-70457142D02*
X213232857Y-70504761D01*
X213090000Y-70552380D01*
X212994761Y-70552380D01*
X212851904Y-70504761D01*
X212756666Y-70409523D01*
X212709047Y-70314285D01*
X212661428Y-70123809D01*
X212661428Y-69980952D01*
X212709047Y-69790476D01*
X212756666Y-69695238D01*
X212851904Y-69600000D01*
X212994761Y-69552380D01*
X213090000Y-69552380D01*
X213232857Y-69600000D01*
X213280476Y-69647619D01*
%TO.C,VDD1*%
X198850476Y-89332380D02*
X199183809Y-90332380D01*
X199517142Y-89332380D01*
X199850476Y-90332380D02*
X199850476Y-89332380D01*
X200088571Y-89332380D01*
X200231428Y-89380000D01*
X200326666Y-89475238D01*
X200374285Y-89570476D01*
X200421904Y-89760952D01*
X200421904Y-89903809D01*
X200374285Y-90094285D01*
X200326666Y-90189523D01*
X200231428Y-90284761D01*
X200088571Y-90332380D01*
X199850476Y-90332380D01*
X200850476Y-90332380D02*
X200850476Y-89332380D01*
X201088571Y-89332380D01*
X201231428Y-89380000D01*
X201326666Y-89475238D01*
X201374285Y-89570476D01*
X201421904Y-89760952D01*
X201421904Y-89903809D01*
X201374285Y-90094285D01*
X201326666Y-90189523D01*
X201231428Y-90284761D01*
X201088571Y-90332380D01*
X200850476Y-90332380D01*
X202374285Y-90332380D02*
X201802857Y-90332380D01*
X202088571Y-90332380D02*
X202088571Y-89332380D01*
X201993333Y-89475238D01*
X201898095Y-89570476D01*
X201802857Y-89618095D01*
%TD*%
%LPC*%
D12*
%TO.C,ICSP_PORT1*%
X217170000Y-83820000D03*
X217170000Y-85090000D03*
X217170000Y-86360000D03*
X217170000Y-87630000D03*
X217170000Y-88900000D03*
D13*
X217170000Y-90170000D03*
%TD*%
D12*
%TO.C,OLED*%
X214630000Y-67310000D03*
X213360000Y-67310000D03*
X212090000Y-67310000D03*
D13*
X210820000Y-67310000D03*
%TD*%
%TO.C,C1*%
G36*
G01*
X203807500Y-92090001D02*
X203807500Y-90789999D01*
G75*
G02*
X204057499Y-90540000I249999J0D01*
G01*
X204882501Y-90540000D01*
G75*
G02*
X205132500Y-90789999I0J-249999D01*
G01*
X205132500Y-92090001D01*
G75*
G02*
X204882501Y-92340000I-249999J0D01*
G01*
X204057499Y-92340000D01*
G75*
G02*
X203807500Y-92090001I0J249999D01*
G01*
G37*
G36*
G01*
X206932500Y-92090001D02*
X206932500Y-90789999D01*
G75*
G02*
X207182499Y-90540000I249999J0D01*
G01*
X208007501Y-90540000D01*
G75*
G02*
X208257500Y-90789999I0J-249999D01*
G01*
X208257500Y-92090001D01*
G75*
G02*
X208007501Y-92340000I-249999J0D01*
G01*
X207182499Y-92340000D01*
G75*
G02*
X206932500Y-92090001I0J249999D01*
G01*
G37*
%TD*%
D14*
%TO.C,GND1*%
X210820000Y-91440000D03*
%TD*%
%TO.C,LB*%
X193040000Y-85090000D03*
%TD*%
%TO.C,LBI*%
X193040000Y-88900000D03*
%TD*%
D15*
%TO.C,MCU*%
X193870000Y-73400000D03*
X193870000Y-74200000D03*
X193870000Y-75000000D03*
X193870000Y-75800000D03*
X193870000Y-76600000D03*
X193870000Y-77400000D03*
X193870000Y-78200000D03*
X193870000Y-79000000D03*
D16*
X195320000Y-80450000D03*
X196120000Y-80450000D03*
X196920000Y-80450000D03*
X197720000Y-80450000D03*
X198520000Y-80450000D03*
X199320000Y-80450000D03*
X200120000Y-80450000D03*
X200920000Y-80450000D03*
D15*
X202370000Y-79000000D03*
X202370000Y-78200000D03*
X202370000Y-77400000D03*
X202370000Y-76600000D03*
X202370000Y-75800000D03*
X202370000Y-75000000D03*
X202370000Y-74200000D03*
X202370000Y-73400000D03*
D16*
X200920000Y-71950000D03*
X200120000Y-71950000D03*
X199320000Y-71950000D03*
X198520000Y-71950000D03*
X197720000Y-71950000D03*
X196920000Y-71950000D03*
X196120000Y-71950000D03*
X195320000Y-71950000D03*
%TD*%
%TO.C,R1*%
G36*
G01*
X202555000Y-88560000D02*
X201305000Y-88560000D01*
G75*
G02*
X201055000Y-88310000I0J250000D01*
G01*
X201055000Y-87510000D01*
G75*
G02*
X201305000Y-87260000I250000J0D01*
G01*
X202555000Y-87260000D01*
G75*
G02*
X202805000Y-87510000I0J-250000D01*
G01*
X202805000Y-88310000D01*
G75*
G02*
X202555000Y-88560000I-250000J0D01*
G01*
G37*
G36*
G01*
X202555000Y-85460000D02*
X201305000Y-85460000D01*
G75*
G02*
X201055000Y-85210000I0J250000D01*
G01*
X201055000Y-84410000D01*
G75*
G02*
X201305000Y-84160000I250000J0D01*
G01*
X202555000Y-84160000D01*
G75*
G02*
X202805000Y-84410000I0J-250000D01*
G01*
X202805000Y-85210000D01*
G75*
G02*
X202555000Y-85460000I-250000J0D01*
G01*
G37*
%TD*%
%TO.C,R2*%
G36*
G01*
X203110000Y-67935000D02*
X203110000Y-66685000D01*
G75*
G02*
X203360000Y-66435000I250000J0D01*
G01*
X204160000Y-66435000D01*
G75*
G02*
X204410000Y-66685000I0J-250000D01*
G01*
X204410000Y-67935000D01*
G75*
G02*
X204160000Y-68185000I-250000J0D01*
G01*
X203360000Y-68185000D01*
G75*
G02*
X203110000Y-67935000I0J250000D01*
G01*
G37*
G36*
G01*
X200010000Y-67935000D02*
X200010000Y-66685000D01*
G75*
G02*
X200260000Y-66435000I250000J0D01*
G01*
X201060000Y-66435000D01*
G75*
G02*
X201310000Y-66685000I0J-250000D01*
G01*
X201310000Y-67935000D01*
G75*
G02*
X201060000Y-68185000I-250000J0D01*
G01*
X200260000Y-68185000D01*
G75*
G02*
X200010000Y-67935000I0J250000D01*
G01*
G37*
%TD*%
%TO.C,R3*%
G36*
G01*
X193660000Y-67935000D02*
X193660000Y-66685000D01*
G75*
G02*
X193910000Y-66435000I250000J0D01*
G01*
X194710000Y-66435000D01*
G75*
G02*
X194960000Y-66685000I0J-250000D01*
G01*
X194960000Y-67935000D01*
G75*
G02*
X194710000Y-68185000I-250000J0D01*
G01*
X193910000Y-68185000D01*
G75*
G02*
X193660000Y-67935000I0J250000D01*
G01*
G37*
G36*
G01*
X196760000Y-67935000D02*
X196760000Y-66685000D01*
G75*
G02*
X197010000Y-66435000I250000J0D01*
G01*
X197810000Y-66435000D01*
G75*
G02*
X198060000Y-66685000I0J-250000D01*
G01*
X198060000Y-67935000D01*
G75*
G02*
X197810000Y-68185000I-250000J0D01*
G01*
X197010000Y-68185000D01*
G75*
G02*
X196760000Y-67935000I0J250000D01*
G01*
G37*
%TD*%
D14*
%TO.C,RB*%
X196850000Y-85090000D03*
%TD*%
%TO.C,RBI*%
X196850000Y-88900000D03*
%TD*%
%TO.C,RTC*%
G36*
G01*
X206415000Y-71905000D02*
X206415000Y-71605000D01*
G75*
G02*
X206565000Y-71455000I150000J0D01*
G01*
X208315000Y-71455000D01*
G75*
G02*
X208465000Y-71605000I0J-150000D01*
G01*
X208465000Y-71905000D01*
G75*
G02*
X208315000Y-72055000I-150000J0D01*
G01*
X206565000Y-72055000D01*
G75*
G02*
X206415000Y-71905000I0J150000D01*
G01*
G37*
G36*
G01*
X206415000Y-73175000D02*
X206415000Y-72875000D01*
G75*
G02*
X206565000Y-72725000I150000J0D01*
G01*
X208315000Y-72725000D01*
G75*
G02*
X208465000Y-72875000I0J-150000D01*
G01*
X208465000Y-73175000D01*
G75*
G02*
X208315000Y-73325000I-150000J0D01*
G01*
X206565000Y-73325000D01*
G75*
G02*
X206415000Y-73175000I0J150000D01*
G01*
G37*
G36*
G01*
X206415000Y-74445000D02*
X206415000Y-74145000D01*
G75*
G02*
X206565000Y-73995000I150000J0D01*
G01*
X208315000Y-73995000D01*
G75*
G02*
X208465000Y-74145000I0J-150000D01*
G01*
X208465000Y-74445000D01*
G75*
G02*
X208315000Y-74595000I-150000J0D01*
G01*
X206565000Y-74595000D01*
G75*
G02*
X206415000Y-74445000I0J150000D01*
G01*
G37*
G36*
G01*
X206415000Y-75715000D02*
X206415000Y-75415000D01*
G75*
G02*
X206565000Y-75265000I150000J0D01*
G01*
X208315000Y-75265000D01*
G75*
G02*
X208465000Y-75415000I0J-150000D01*
G01*
X208465000Y-75715000D01*
G75*
G02*
X208315000Y-75865000I-150000J0D01*
G01*
X206565000Y-75865000D01*
G75*
G02*
X206415000Y-75715000I0J150000D01*
G01*
G37*
G36*
G01*
X206415000Y-76985000D02*
X206415000Y-76685000D01*
G75*
G02*
X206565000Y-76535000I150000J0D01*
G01*
X208315000Y-76535000D01*
G75*
G02*
X208465000Y-76685000I0J-150000D01*
G01*
X208465000Y-76985000D01*
G75*
G02*
X208315000Y-77135000I-150000J0D01*
G01*
X206565000Y-77135000D01*
G75*
G02*
X206415000Y-76985000I0J150000D01*
G01*
G37*
G36*
G01*
X206415000Y-78255000D02*
X206415000Y-77955000D01*
G75*
G02*
X206565000Y-77805000I150000J0D01*
G01*
X208315000Y-77805000D01*
G75*
G02*
X208465000Y-77955000I0J-150000D01*
G01*
X208465000Y-78255000D01*
G75*
G02*
X208315000Y-78405000I-150000J0D01*
G01*
X206565000Y-78405000D01*
G75*
G02*
X206415000Y-78255000I0J150000D01*
G01*
G37*
G36*
G01*
X206415000Y-79525000D02*
X206415000Y-79225000D01*
G75*
G02*
X206565000Y-79075000I150000J0D01*
G01*
X208315000Y-79075000D01*
G75*
G02*
X208465000Y-79225000I0J-150000D01*
G01*
X208465000Y-79525000D01*
G75*
G02*
X208315000Y-79675000I-150000J0D01*
G01*
X206565000Y-79675000D01*
G75*
G02*
X206415000Y-79525000I0J150000D01*
G01*
G37*
G36*
G01*
X206415000Y-80795000D02*
X206415000Y-80495000D01*
G75*
G02*
X206565000Y-80345000I150000J0D01*
G01*
X208315000Y-80345000D01*
G75*
G02*
X208465000Y-80495000I0J-150000D01*
G01*
X208465000Y-80795000D01*
G75*
G02*
X208315000Y-80945000I-150000J0D01*
G01*
X206565000Y-80945000D01*
G75*
G02*
X206415000Y-80795000I0J150000D01*
G01*
G37*
G36*
G01*
X215715000Y-80795000D02*
X215715000Y-80495000D01*
G75*
G02*
X215865000Y-80345000I150000J0D01*
G01*
X217615000Y-80345000D01*
G75*
G02*
X217765000Y-80495000I0J-150000D01*
G01*
X217765000Y-80795000D01*
G75*
G02*
X217615000Y-80945000I-150000J0D01*
G01*
X215865000Y-80945000D01*
G75*
G02*
X215715000Y-80795000I0J150000D01*
G01*
G37*
G36*
G01*
X215715000Y-79525000D02*
X215715000Y-79225000D01*
G75*
G02*
X215865000Y-79075000I150000J0D01*
G01*
X217615000Y-79075000D01*
G75*
G02*
X217765000Y-79225000I0J-150000D01*
G01*
X217765000Y-79525000D01*
G75*
G02*
X217615000Y-79675000I-150000J0D01*
G01*
X215865000Y-79675000D01*
G75*
G02*
X215715000Y-79525000I0J150000D01*
G01*
G37*
G36*
G01*
X215715000Y-78255000D02*
X215715000Y-77955000D01*
G75*
G02*
X215865000Y-77805000I150000J0D01*
G01*
X217615000Y-77805000D01*
G75*
G02*
X217765000Y-77955000I0J-150000D01*
G01*
X217765000Y-78255000D01*
G75*
G02*
X217615000Y-78405000I-150000J0D01*
G01*
X215865000Y-78405000D01*
G75*
G02*
X215715000Y-78255000I0J150000D01*
G01*
G37*
G36*
G01*
X215715000Y-76985000D02*
X215715000Y-76685000D01*
G75*
G02*
X215865000Y-76535000I150000J0D01*
G01*
X217615000Y-76535000D01*
G75*
G02*
X217765000Y-76685000I0J-150000D01*
G01*
X217765000Y-76985000D01*
G75*
G02*
X217615000Y-77135000I-150000J0D01*
G01*
X215865000Y-77135000D01*
G75*
G02*
X215715000Y-76985000I0J150000D01*
G01*
G37*
G36*
G01*
X215715000Y-75715000D02*
X215715000Y-75415000D01*
G75*
G02*
X215865000Y-75265000I150000J0D01*
G01*
X217615000Y-75265000D01*
G75*
G02*
X217765000Y-75415000I0J-150000D01*
G01*
X217765000Y-75715000D01*
G75*
G02*
X217615000Y-75865000I-150000J0D01*
G01*
X215865000Y-75865000D01*
G75*
G02*
X215715000Y-75715000I0J150000D01*
G01*
G37*
G36*
G01*
X215715000Y-74445000D02*
X215715000Y-74145000D01*
G75*
G02*
X215865000Y-73995000I150000J0D01*
G01*
X217615000Y-73995000D01*
G75*
G02*
X217765000Y-74145000I0J-150000D01*
G01*
X217765000Y-74445000D01*
G75*
G02*
X217615000Y-74595000I-150000J0D01*
G01*
X215865000Y-74595000D01*
G75*
G02*
X215715000Y-74445000I0J150000D01*
G01*
G37*
G36*
G01*
X215715000Y-73175000D02*
X215715000Y-72875000D01*
G75*
G02*
X215865000Y-72725000I150000J0D01*
G01*
X217615000Y-72725000D01*
G75*
G02*
X217765000Y-72875000I0J-150000D01*
G01*
X217765000Y-73175000D01*
G75*
G02*
X217615000Y-73325000I-150000J0D01*
G01*
X215865000Y-73325000D01*
G75*
G02*
X215715000Y-73175000I0J150000D01*
G01*
G37*
G36*
G01*
X215715000Y-71905000D02*
X215715000Y-71605000D01*
G75*
G02*
X215865000Y-71455000I150000J0D01*
G01*
X217615000Y-71455000D01*
G75*
G02*
X217765000Y-71605000I0J-150000D01*
G01*
X217765000Y-71905000D01*
G75*
G02*
X217615000Y-72055000I-150000J0D01*
G01*
X215865000Y-72055000D01*
G75*
G02*
X215715000Y-71905000I0J150000D01*
G01*
G37*
%TD*%
%TO.C,VDD1*%
X200660000Y-91440000D03*
%TD*%
M02*
