%TF.GenerationSoftware,KiCad,Pcbnew,(5.1.12)-1*%
%TF.CreationDate,2022-02-08T18:48:31+00:00*%
%TF.ProjectId,Watch_PCB_V2,57617463-685f-4504-9342-5f56322e6b69,rev?*%
%TF.SameCoordinates,Original*%
%TF.FileFunction,Copper,L2,Bot*%
%TF.FilePolarity,Positive*%
%FSLAX46Y46*%
G04 Gerber Fmt 4.6, Leading zero omitted, Abs format (unit mm)*
G04 Created by KiCad (PCBNEW (5.1.12)-1) date 2022-02-08 18:48:31*
%MOMM*%
%LPD*%
G01*
G04 APERTURE LIST*
%TA.AperFunction,ComponentPad*%
%ADD10O,1.000000X1.000000*%
%TD*%
%TA.AperFunction,ComponentPad*%
%ADD11R,1.000000X1.000000*%
%TD*%
%TA.AperFunction,ComponentPad*%
%ADD12R,0.850000X0.850000*%
%TD*%
%TA.AperFunction,ViaPad*%
%ADD13C,0.800000*%
%TD*%
%TA.AperFunction,Conductor*%
%ADD14C,0.250000*%
%TD*%
%TA.AperFunction,Conductor*%
%ADD15C,0.254000*%
%TD*%
%TA.AperFunction,Conductor*%
%ADD16C,0.100000*%
%TD*%
G04 APERTURE END LIST*
D10*
%TO.P,ICSP_PORT1,6*%
%TO.N,Vin*%
X217170000Y-83820000D03*
%TO.P,ICSP_PORT1,5*%
%TO.N,GND*%
X217170000Y-85090000D03*
%TO.P,ICSP_PORT1,4*%
%TO.N,SCK*%
X217170000Y-86360000D03*
%TO.P,ICSP_PORT1,3*%
%TO.N,MISO*%
X217170000Y-87630000D03*
%TO.P,ICSP_PORT1,2*%
%TO.N,MOSI*%
X217170000Y-88900000D03*
D11*
%TO.P,ICSP_PORT1,1*%
%TO.N,SS*%
X217170000Y-90170000D03*
%TD*%
D10*
%TO.P,OLED,4*%
%TO.N,SDA*%
X214630000Y-67310000D03*
%TO.P,OLED,3*%
%TO.N,SCL*%
X213360000Y-67310000D03*
%TO.P,OLED,2*%
%TO.N,Vin*%
X212090000Y-67310000D03*
D11*
%TO.P,OLED,1*%
%TO.N,GND*%
X210820000Y-67310000D03*
%TD*%
D12*
%TO.P,GND1,1*%
%TO.N,GND*%
X210820000Y-91440000D03*
%TD*%
%TO.P,LB,1*%
%TO.N,Net-(Left_button1-Pad1)*%
X193040000Y-85090000D03*
%TD*%
%TO.P,LBI,1*%
%TO.N,GND*%
X193040000Y-88900000D03*
%TD*%
%TO.P,RB,1*%
%TO.N,Net-(MCU1-Pad2)*%
X196850000Y-85090000D03*
%TD*%
%TO.P,RBI,1*%
%TO.N,GND*%
X196850000Y-88900000D03*
%TD*%
%TO.P,VDD1,1*%
%TO.N,Vin*%
X200660000Y-91440000D03*
%TD*%
D13*
%TO.N,GND*%
X205740000Y-77470000D03*
X200660000Y-76200000D03*
%TO.N,SS*%
X199390000Y-88900000D03*
%TO.N,MOSI*%
X200660000Y-82550000D03*
X200660000Y-82550000D03*
%TO.N,MISO*%
X202770001Y-82550000D03*
%TO.N,SCK*%
X202770001Y-80010000D03*
%TO.N,Net-(Left_button1-Pad1)*%
X193469999Y-72390000D03*
%TO.N,Net-(MCU1-Pad2)*%
X195580000Y-73660000D03*
%TO.N,SCL*%
X198120000Y-67310000D03*
X218440000Y-72390000D03*
X212090000Y-68580000D03*
%TO.N,Net-(MCU1-Pad29)*%
X200095000Y-85090000D03*
X196850000Y-73660000D03*
%TD*%
D14*
%TO.N,SS*%
X199390000Y-88900000D02*
X200660000Y-90170000D01*
X200660000Y-90170000D02*
X217170000Y-90170000D01*
%TO.N,MOSI*%
X207010000Y-88900000D02*
X217170000Y-88900000D01*
X200660000Y-82550000D02*
X207010000Y-88900000D01*
%TO.N,MISO*%
X202770001Y-82550000D02*
X202770001Y-83390001D01*
X207010000Y-87630000D02*
X217170000Y-87630000D01*
X202770001Y-83390001D02*
X207010000Y-87630000D01*
%TO.N,SCK*%
X202770001Y-80010000D02*
X209120001Y-86360000D01*
X209120001Y-86360000D02*
X217170000Y-86360000D01*
%TO.N,Net-(Left_button1-Pad1)*%
X193469999Y-72390000D02*
X191770000Y-72390000D01*
X191770000Y-83820000D02*
X193040000Y-85090000D01*
X191770000Y-72390000D02*
X191770000Y-83820000D01*
%TO.N,Net-(MCU1-Pad2)*%
X195580000Y-83820000D02*
X196850000Y-85090000D01*
X195580000Y-74930000D02*
X195580000Y-83820000D01*
X195580000Y-73660000D02*
X195580000Y-74930000D01*
%TO.N,SCL*%
X198120000Y-67310000D02*
X200660000Y-64770000D01*
X200660000Y-64770000D02*
X205740000Y-64770000D01*
X213360000Y-72390000D02*
X218440000Y-72390000D01*
X210820000Y-69850000D02*
X213360000Y-72390000D01*
X205740000Y-64770000D02*
X210820000Y-69850000D01*
X210820000Y-69850000D02*
X212090000Y-68580000D01*
%TO.N,Net-(MCU1-Pad29)*%
X196850000Y-81845000D02*
X200095000Y-85090000D01*
X196850000Y-73660000D02*
X196850000Y-81845000D01*
%TD*%
D15*
%TO.N,GND*%
X200148996Y-64206201D02*
X200148992Y-64206205D01*
X200119999Y-64229999D01*
X200096205Y-64258992D01*
X198080199Y-66275000D01*
X198018061Y-66275000D01*
X197818102Y-66314774D01*
X197629744Y-66392795D01*
X197460226Y-66506063D01*
X197316063Y-66650226D01*
X197202795Y-66819744D01*
X197124774Y-67008102D01*
X197085000Y-67208061D01*
X197085000Y-67411939D01*
X197124774Y-67611898D01*
X197202795Y-67800256D01*
X197316063Y-67969774D01*
X197460226Y-68113937D01*
X197629744Y-68227205D01*
X197818102Y-68305226D01*
X198018061Y-68345000D01*
X198221939Y-68345000D01*
X198421898Y-68305226D01*
X198610256Y-68227205D01*
X198779774Y-68113937D01*
X198923937Y-67969774D01*
X199037205Y-67800256D01*
X199115226Y-67611898D01*
X199155000Y-67411939D01*
X199155000Y-67349801D01*
X200974803Y-65530000D01*
X205425199Y-65530000D01*
X210256200Y-70361002D01*
X210279999Y-70390001D01*
X210308997Y-70413799D01*
X210309002Y-70413803D01*
X212796205Y-72901008D01*
X212819999Y-72930001D01*
X212848992Y-72953795D01*
X212848996Y-72953799D01*
X212905568Y-73000226D01*
X212935724Y-73024974D01*
X213067753Y-73095546D01*
X213211014Y-73139003D01*
X213322667Y-73150000D01*
X213322676Y-73150000D01*
X213359999Y-73153676D01*
X213397322Y-73150000D01*
X217736289Y-73150000D01*
X217780226Y-73193937D01*
X217949744Y-73307205D01*
X218138102Y-73385226D01*
X218338061Y-73425000D01*
X218541939Y-73425000D01*
X218741898Y-73385226D01*
X218930256Y-73307205D01*
X219099774Y-73193937D01*
X219243937Y-73049774D01*
X219357205Y-72880256D01*
X219435226Y-72691898D01*
X219475000Y-72491939D01*
X219475000Y-72288061D01*
X219435226Y-72088102D01*
X219357205Y-71899744D01*
X219243937Y-71730226D01*
X219099774Y-71586063D01*
X218930256Y-71472795D01*
X218741898Y-71394774D01*
X218541939Y-71355000D01*
X218338061Y-71355000D01*
X218138102Y-71394774D01*
X217949744Y-71472795D01*
X217780226Y-71586063D01*
X217736289Y-71630000D01*
X213674803Y-71630000D01*
X211894801Y-69850000D01*
X212129802Y-69615000D01*
X212191939Y-69615000D01*
X212391898Y-69575226D01*
X212580256Y-69497205D01*
X212749774Y-69383937D01*
X212893937Y-69239774D01*
X213007205Y-69070256D01*
X213085226Y-68881898D01*
X213125000Y-68681939D01*
X213125000Y-68478061D01*
X213113077Y-68418120D01*
X213248212Y-68445000D01*
X213471788Y-68445000D01*
X213691067Y-68401383D01*
X213897624Y-68315824D01*
X213995000Y-68250759D01*
X214092376Y-68315824D01*
X214298933Y-68401383D01*
X214518212Y-68445000D01*
X214741788Y-68445000D01*
X214961067Y-68401383D01*
X215167624Y-68315824D01*
X215353520Y-68191612D01*
X215511612Y-68033520D01*
X215635824Y-67847624D01*
X215721383Y-67641067D01*
X215765000Y-67421788D01*
X215765000Y-67198212D01*
X215721383Y-66978933D01*
X215635824Y-66772376D01*
X215511612Y-66586480D01*
X215353520Y-66428388D01*
X215167624Y-66304176D01*
X214961067Y-66218617D01*
X214741788Y-66175000D01*
X214518212Y-66175000D01*
X214298933Y-66218617D01*
X214092376Y-66304176D01*
X213995000Y-66369241D01*
X213897624Y-66304176D01*
X213691067Y-66218617D01*
X213471788Y-66175000D01*
X213248212Y-66175000D01*
X213028933Y-66218617D01*
X212822376Y-66304176D01*
X212725000Y-66369241D01*
X212627624Y-66304176D01*
X212421067Y-66218617D01*
X212201788Y-66175000D01*
X211978212Y-66175000D01*
X211758933Y-66218617D01*
X211647226Y-66264888D01*
X211564180Y-66220498D01*
X211444482Y-66184188D01*
X211320000Y-66171928D01*
X211105750Y-66175000D01*
X210947000Y-66333750D01*
X210947000Y-67183000D01*
X210958026Y-67183000D01*
X210955000Y-67198212D01*
X210955000Y-67421788D01*
X210958026Y-67437000D01*
X210947000Y-67437000D01*
X210947000Y-68286250D01*
X211068905Y-68408155D01*
X211055000Y-68478061D01*
X211055000Y-68540198D01*
X210820000Y-68775198D01*
X210490430Y-68445628D01*
X210534250Y-68445000D01*
X210693000Y-68286250D01*
X210693000Y-67437000D01*
X209843750Y-67437000D01*
X209685000Y-67595750D01*
X209684372Y-67639570D01*
X208854802Y-66810000D01*
X209681928Y-66810000D01*
X209685000Y-67024250D01*
X209843750Y-67183000D01*
X210693000Y-67183000D01*
X210693000Y-66333750D01*
X210534250Y-66175000D01*
X210320000Y-66171928D01*
X210195518Y-66184188D01*
X210075820Y-66220498D01*
X209965506Y-66279463D01*
X209868815Y-66358815D01*
X209789463Y-66455506D01*
X209730498Y-66565820D01*
X209694188Y-66685518D01*
X209681928Y-66810000D01*
X208854802Y-66810000D01*
X206303804Y-64259003D01*
X206280001Y-64229999D01*
X206194707Y-64160000D01*
X220320000Y-64160000D01*
X220320001Y-93320000D01*
X191160000Y-93320000D01*
X191160000Y-89325000D01*
X191976928Y-89325000D01*
X191989188Y-89449482D01*
X192025498Y-89569180D01*
X192084463Y-89679494D01*
X192163815Y-89776185D01*
X192260506Y-89855537D01*
X192370820Y-89914502D01*
X192490518Y-89950812D01*
X192615000Y-89963072D01*
X192754250Y-89960000D01*
X192913000Y-89801250D01*
X192913000Y-89027000D01*
X193167000Y-89027000D01*
X193167000Y-89801250D01*
X193325750Y-89960000D01*
X193465000Y-89963072D01*
X193589482Y-89950812D01*
X193709180Y-89914502D01*
X193819494Y-89855537D01*
X193916185Y-89776185D01*
X193995537Y-89679494D01*
X194054502Y-89569180D01*
X194090812Y-89449482D01*
X194103072Y-89325000D01*
X195786928Y-89325000D01*
X195799188Y-89449482D01*
X195835498Y-89569180D01*
X195894463Y-89679494D01*
X195973815Y-89776185D01*
X196070506Y-89855537D01*
X196180820Y-89914502D01*
X196300518Y-89950812D01*
X196425000Y-89963072D01*
X196564250Y-89960000D01*
X196723000Y-89801250D01*
X196723000Y-89027000D01*
X196977000Y-89027000D01*
X196977000Y-89801250D01*
X197135750Y-89960000D01*
X197275000Y-89963072D01*
X197399482Y-89950812D01*
X197519180Y-89914502D01*
X197629494Y-89855537D01*
X197726185Y-89776185D01*
X197805537Y-89679494D01*
X197864502Y-89569180D01*
X197900812Y-89449482D01*
X197913072Y-89325000D01*
X197910000Y-89185750D01*
X197751250Y-89027000D01*
X196977000Y-89027000D01*
X196723000Y-89027000D01*
X195948750Y-89027000D01*
X195790000Y-89185750D01*
X195786928Y-89325000D01*
X194103072Y-89325000D01*
X194100000Y-89185750D01*
X193941250Y-89027000D01*
X193167000Y-89027000D01*
X192913000Y-89027000D01*
X192138750Y-89027000D01*
X191980000Y-89185750D01*
X191976928Y-89325000D01*
X191160000Y-89325000D01*
X191160000Y-88798061D01*
X198355000Y-88798061D01*
X198355000Y-89001939D01*
X198394774Y-89201898D01*
X198472795Y-89390256D01*
X198586063Y-89559774D01*
X198730226Y-89703937D01*
X198899744Y-89817205D01*
X199088102Y-89895226D01*
X199288061Y-89935000D01*
X199350199Y-89935000D01*
X199892989Y-90477791D01*
X199880506Y-90484463D01*
X199783815Y-90563815D01*
X199704463Y-90660506D01*
X199645498Y-90770820D01*
X199609188Y-90890518D01*
X199596928Y-91015000D01*
X199596928Y-91865000D01*
X199609188Y-91989482D01*
X199645498Y-92109180D01*
X199704463Y-92219494D01*
X199783815Y-92316185D01*
X199880506Y-92395537D01*
X199990820Y-92454502D01*
X200110518Y-92490812D01*
X200235000Y-92503072D01*
X201085000Y-92503072D01*
X201209482Y-92490812D01*
X201329180Y-92454502D01*
X201439494Y-92395537D01*
X201536185Y-92316185D01*
X201615537Y-92219494D01*
X201674502Y-92109180D01*
X201710812Y-91989482D01*
X201723072Y-91865000D01*
X209756928Y-91865000D01*
X209769188Y-91989482D01*
X209805498Y-92109180D01*
X209864463Y-92219494D01*
X209943815Y-92316185D01*
X210040506Y-92395537D01*
X210150820Y-92454502D01*
X210270518Y-92490812D01*
X210395000Y-92503072D01*
X210534250Y-92500000D01*
X210693000Y-92341250D01*
X210693000Y-91567000D01*
X210947000Y-91567000D01*
X210947000Y-92341250D01*
X211105750Y-92500000D01*
X211245000Y-92503072D01*
X211369482Y-92490812D01*
X211489180Y-92454502D01*
X211599494Y-92395537D01*
X211696185Y-92316185D01*
X211775537Y-92219494D01*
X211834502Y-92109180D01*
X211870812Y-91989482D01*
X211883072Y-91865000D01*
X211880000Y-91725750D01*
X211721250Y-91567000D01*
X210947000Y-91567000D01*
X210693000Y-91567000D01*
X209918750Y-91567000D01*
X209760000Y-91725750D01*
X209756928Y-91865000D01*
X201723072Y-91865000D01*
X201723072Y-91015000D01*
X201714701Y-90930000D01*
X209765299Y-90930000D01*
X209756928Y-91015000D01*
X209760000Y-91154250D01*
X209918750Y-91313000D01*
X210693000Y-91313000D01*
X210693000Y-91293000D01*
X210947000Y-91293000D01*
X210947000Y-91313000D01*
X211721250Y-91313000D01*
X211880000Y-91154250D01*
X211883072Y-91015000D01*
X211874701Y-90930000D01*
X216088954Y-90930000D01*
X216139463Y-91024494D01*
X216218815Y-91121185D01*
X216315506Y-91200537D01*
X216425820Y-91259502D01*
X216545518Y-91295812D01*
X216670000Y-91308072D01*
X217670000Y-91308072D01*
X217794482Y-91295812D01*
X217914180Y-91259502D01*
X218024494Y-91200537D01*
X218121185Y-91121185D01*
X218200537Y-91024494D01*
X218259502Y-90914180D01*
X218295812Y-90794482D01*
X218308072Y-90670000D01*
X218308072Y-89670000D01*
X218295812Y-89545518D01*
X218259502Y-89425820D01*
X218215112Y-89342774D01*
X218261383Y-89231067D01*
X218305000Y-89011788D01*
X218305000Y-88788212D01*
X218261383Y-88568933D01*
X218175824Y-88362376D01*
X218110759Y-88265000D01*
X218175824Y-88167624D01*
X218261383Y-87961067D01*
X218305000Y-87741788D01*
X218305000Y-87518212D01*
X218261383Y-87298933D01*
X218175824Y-87092376D01*
X218110759Y-86995000D01*
X218175824Y-86897624D01*
X218261383Y-86691067D01*
X218305000Y-86471788D01*
X218305000Y-86248212D01*
X218261383Y-86028933D01*
X218175824Y-85822376D01*
X218107647Y-85720342D01*
X218157123Y-85650206D01*
X218247446Y-85446864D01*
X218264119Y-85391874D01*
X218137954Y-85217000D01*
X217297000Y-85217000D01*
X217297000Y-85228026D01*
X217281788Y-85225000D01*
X217058212Y-85225000D01*
X217043000Y-85228026D01*
X217043000Y-85217000D01*
X216202046Y-85217000D01*
X216075881Y-85391874D01*
X216092554Y-85446864D01*
X216160576Y-85600000D01*
X209434803Y-85600000D01*
X207543015Y-83708212D01*
X216035000Y-83708212D01*
X216035000Y-83931788D01*
X216078617Y-84151067D01*
X216164176Y-84357624D01*
X216232353Y-84459658D01*
X216182877Y-84529794D01*
X216092554Y-84733136D01*
X216075881Y-84788126D01*
X216202046Y-84963000D01*
X217043000Y-84963000D01*
X217043000Y-84951974D01*
X217058212Y-84955000D01*
X217281788Y-84955000D01*
X217297000Y-84951974D01*
X217297000Y-84963000D01*
X218137954Y-84963000D01*
X218264119Y-84788126D01*
X218247446Y-84733136D01*
X218157123Y-84529794D01*
X218107647Y-84459658D01*
X218175824Y-84357624D01*
X218261383Y-84151067D01*
X218305000Y-83931788D01*
X218305000Y-83708212D01*
X218261383Y-83488933D01*
X218175824Y-83282376D01*
X218051612Y-83096480D01*
X217893520Y-82938388D01*
X217707624Y-82814176D01*
X217501067Y-82728617D01*
X217281788Y-82685000D01*
X217058212Y-82685000D01*
X216838933Y-82728617D01*
X216632376Y-82814176D01*
X216446480Y-82938388D01*
X216288388Y-83096480D01*
X216164176Y-83282376D01*
X216078617Y-83488933D01*
X216035000Y-83708212D01*
X207543015Y-83708212D01*
X203805001Y-79970199D01*
X203805001Y-79908061D01*
X203765227Y-79708102D01*
X203687206Y-79519744D01*
X203573938Y-79350226D01*
X203429775Y-79206063D01*
X203260257Y-79092795D01*
X203071899Y-79014774D01*
X202871940Y-78975000D01*
X202668062Y-78975000D01*
X202468103Y-79014774D01*
X202279745Y-79092795D01*
X202110227Y-79206063D01*
X201966064Y-79350226D01*
X201852796Y-79519744D01*
X201774775Y-79708102D01*
X201735001Y-79908061D01*
X201735001Y-80111939D01*
X201774775Y-80311898D01*
X201852796Y-80500256D01*
X201966064Y-80669774D01*
X202110227Y-80813937D01*
X202279745Y-80927205D01*
X202468103Y-81005226D01*
X202668062Y-81045000D01*
X202730200Y-81045000D01*
X208555199Y-86870000D01*
X207324802Y-86870000D01*
X203610242Y-83155441D01*
X203687206Y-83040256D01*
X203765227Y-82851898D01*
X203805001Y-82651939D01*
X203805001Y-82448061D01*
X203765227Y-82248102D01*
X203687206Y-82059744D01*
X203573938Y-81890226D01*
X203429775Y-81746063D01*
X203260257Y-81632795D01*
X203071899Y-81554774D01*
X202871940Y-81515000D01*
X202668062Y-81515000D01*
X202468103Y-81554774D01*
X202279745Y-81632795D01*
X202110227Y-81746063D01*
X201966064Y-81890226D01*
X201852796Y-82059744D01*
X201774775Y-82248102D01*
X201735001Y-82448061D01*
X201735001Y-82550200D01*
X201695000Y-82510199D01*
X201695000Y-82448061D01*
X201655226Y-82248102D01*
X201577205Y-82059744D01*
X201463937Y-81890226D01*
X201319774Y-81746063D01*
X201150256Y-81632795D01*
X200961898Y-81554774D01*
X200761939Y-81515000D01*
X200558061Y-81515000D01*
X200358102Y-81554774D01*
X200169744Y-81632795D01*
X200000226Y-81746063D01*
X199856063Y-81890226D01*
X199742795Y-82059744D01*
X199664774Y-82248102D01*
X199625000Y-82448061D01*
X199625000Y-82651939D01*
X199664774Y-82851898D01*
X199742795Y-83040256D01*
X199856063Y-83209774D01*
X200000226Y-83353937D01*
X200169744Y-83467205D01*
X200358102Y-83545226D01*
X200558061Y-83585000D01*
X200620199Y-83585000D01*
X206445198Y-89410000D01*
X200974802Y-89410000D01*
X200425000Y-88860199D01*
X200425000Y-88798061D01*
X200385226Y-88598102D01*
X200307205Y-88409744D01*
X200193937Y-88240226D01*
X200049774Y-88096063D01*
X199880256Y-87982795D01*
X199691898Y-87904774D01*
X199491939Y-87865000D01*
X199288061Y-87865000D01*
X199088102Y-87904774D01*
X198899744Y-87982795D01*
X198730226Y-88096063D01*
X198586063Y-88240226D01*
X198472795Y-88409744D01*
X198394774Y-88598102D01*
X198355000Y-88798061D01*
X191160000Y-88798061D01*
X191160000Y-88475000D01*
X191976928Y-88475000D01*
X191980000Y-88614250D01*
X192138750Y-88773000D01*
X192913000Y-88773000D01*
X192913000Y-87998750D01*
X193167000Y-87998750D01*
X193167000Y-88773000D01*
X193941250Y-88773000D01*
X194100000Y-88614250D01*
X194103072Y-88475000D01*
X195786928Y-88475000D01*
X195790000Y-88614250D01*
X195948750Y-88773000D01*
X196723000Y-88773000D01*
X196723000Y-87998750D01*
X196977000Y-87998750D01*
X196977000Y-88773000D01*
X197751250Y-88773000D01*
X197910000Y-88614250D01*
X197913072Y-88475000D01*
X197900812Y-88350518D01*
X197864502Y-88230820D01*
X197805537Y-88120506D01*
X197726185Y-88023815D01*
X197629494Y-87944463D01*
X197519180Y-87885498D01*
X197399482Y-87849188D01*
X197275000Y-87836928D01*
X197135750Y-87840000D01*
X196977000Y-87998750D01*
X196723000Y-87998750D01*
X196564250Y-87840000D01*
X196425000Y-87836928D01*
X196300518Y-87849188D01*
X196180820Y-87885498D01*
X196070506Y-87944463D01*
X195973815Y-88023815D01*
X195894463Y-88120506D01*
X195835498Y-88230820D01*
X195799188Y-88350518D01*
X195786928Y-88475000D01*
X194103072Y-88475000D01*
X194090812Y-88350518D01*
X194054502Y-88230820D01*
X193995537Y-88120506D01*
X193916185Y-88023815D01*
X193819494Y-87944463D01*
X193709180Y-87885498D01*
X193589482Y-87849188D01*
X193465000Y-87836928D01*
X193325750Y-87840000D01*
X193167000Y-87998750D01*
X192913000Y-87998750D01*
X192754250Y-87840000D01*
X192615000Y-87836928D01*
X192490518Y-87849188D01*
X192370820Y-87885498D01*
X192260506Y-87944463D01*
X192163815Y-88023815D01*
X192084463Y-88120506D01*
X192025498Y-88230820D01*
X191989188Y-88350518D01*
X191976928Y-88475000D01*
X191160000Y-88475000D01*
X191160000Y-84274707D01*
X191206201Y-84331002D01*
X191230000Y-84360001D01*
X191258998Y-84383799D01*
X191976928Y-85101730D01*
X191976928Y-85515000D01*
X191989188Y-85639482D01*
X192025498Y-85759180D01*
X192084463Y-85869494D01*
X192163815Y-85966185D01*
X192260506Y-86045537D01*
X192370820Y-86104502D01*
X192490518Y-86140812D01*
X192615000Y-86153072D01*
X193465000Y-86153072D01*
X193589482Y-86140812D01*
X193709180Y-86104502D01*
X193819494Y-86045537D01*
X193916185Y-85966185D01*
X193995537Y-85869494D01*
X194054502Y-85759180D01*
X194090812Y-85639482D01*
X194103072Y-85515000D01*
X194103072Y-84665000D01*
X194090812Y-84540518D01*
X194054502Y-84420820D01*
X193995537Y-84310506D01*
X193916185Y-84213815D01*
X193819494Y-84134463D01*
X193709180Y-84075498D01*
X193589482Y-84039188D01*
X193465000Y-84026928D01*
X193051730Y-84026928D01*
X192530000Y-83505199D01*
X192530000Y-73558061D01*
X194545000Y-73558061D01*
X194545000Y-73761939D01*
X194584774Y-73961898D01*
X194662795Y-74150256D01*
X194776063Y-74319774D01*
X194820001Y-74363712D01*
X194820001Y-74892658D01*
X194820000Y-74892668D01*
X194820001Y-83782668D01*
X194816324Y-83820000D01*
X194830998Y-83968985D01*
X194874454Y-84112246D01*
X194945026Y-84244276D01*
X195016201Y-84331002D01*
X195040000Y-84360001D01*
X195068998Y-84383799D01*
X195786928Y-85101730D01*
X195786928Y-85515000D01*
X195799188Y-85639482D01*
X195835498Y-85759180D01*
X195894463Y-85869494D01*
X195973815Y-85966185D01*
X196070506Y-86045537D01*
X196180820Y-86104502D01*
X196300518Y-86140812D01*
X196425000Y-86153072D01*
X197275000Y-86153072D01*
X197399482Y-86140812D01*
X197519180Y-86104502D01*
X197629494Y-86045537D01*
X197726185Y-85966185D01*
X197805537Y-85869494D01*
X197864502Y-85759180D01*
X197900812Y-85639482D01*
X197913072Y-85515000D01*
X197913072Y-84665000D01*
X197900812Y-84540518D01*
X197864502Y-84420820D01*
X197805537Y-84310506D01*
X197726185Y-84213815D01*
X197629494Y-84134463D01*
X197519180Y-84075498D01*
X197399482Y-84039188D01*
X197275000Y-84026928D01*
X196861730Y-84026928D01*
X196340000Y-83505199D01*
X196340000Y-82409801D01*
X199060000Y-85129802D01*
X199060000Y-85191939D01*
X199099774Y-85391898D01*
X199177795Y-85580256D01*
X199291063Y-85749774D01*
X199435226Y-85893937D01*
X199604744Y-86007205D01*
X199793102Y-86085226D01*
X199993061Y-86125000D01*
X200196939Y-86125000D01*
X200396898Y-86085226D01*
X200585256Y-86007205D01*
X200754774Y-85893937D01*
X200898937Y-85749774D01*
X201012205Y-85580256D01*
X201090226Y-85391898D01*
X201130000Y-85191939D01*
X201130000Y-84988061D01*
X201090226Y-84788102D01*
X201012205Y-84599744D01*
X200898937Y-84430226D01*
X200754774Y-84286063D01*
X200585256Y-84172795D01*
X200396898Y-84094774D01*
X200196939Y-84055000D01*
X200134802Y-84055000D01*
X197610000Y-81530199D01*
X197610000Y-74363711D01*
X197653937Y-74319774D01*
X197767205Y-74150256D01*
X197845226Y-73961898D01*
X197885000Y-73761939D01*
X197885000Y-73558061D01*
X197845226Y-73358102D01*
X197767205Y-73169744D01*
X197653937Y-73000226D01*
X197509774Y-72856063D01*
X197340256Y-72742795D01*
X197151898Y-72664774D01*
X196951939Y-72625000D01*
X196748061Y-72625000D01*
X196548102Y-72664774D01*
X196359744Y-72742795D01*
X196215000Y-72839510D01*
X196070256Y-72742795D01*
X195881898Y-72664774D01*
X195681939Y-72625000D01*
X195478061Y-72625000D01*
X195278102Y-72664774D01*
X195089744Y-72742795D01*
X194920226Y-72856063D01*
X194776063Y-73000226D01*
X194662795Y-73169744D01*
X194584774Y-73358102D01*
X194545000Y-73558061D01*
X192530000Y-73558061D01*
X192530000Y-73150000D01*
X192766288Y-73150000D01*
X192810225Y-73193937D01*
X192979743Y-73307205D01*
X193168101Y-73385226D01*
X193368060Y-73425000D01*
X193571938Y-73425000D01*
X193771897Y-73385226D01*
X193960255Y-73307205D01*
X194129773Y-73193937D01*
X194273936Y-73049774D01*
X194387204Y-72880256D01*
X194465225Y-72691898D01*
X194504999Y-72491939D01*
X194504999Y-72288061D01*
X194465225Y-72088102D01*
X194387204Y-71899744D01*
X194273936Y-71730226D01*
X194129773Y-71586063D01*
X193960255Y-71472795D01*
X193771897Y-71394774D01*
X193571938Y-71355000D01*
X193368060Y-71355000D01*
X193168101Y-71394774D01*
X192979743Y-71472795D01*
X192810225Y-71586063D01*
X192766288Y-71630000D01*
X191807333Y-71630000D01*
X191770000Y-71626323D01*
X191732667Y-71630000D01*
X191621014Y-71640997D01*
X191477753Y-71684454D01*
X191345724Y-71755026D01*
X191229999Y-71849999D01*
X191160000Y-71935293D01*
X191160000Y-64160000D01*
X200205293Y-64160000D01*
X200148996Y-64206201D01*
%TA.AperFunction,Conductor*%
D16*
G36*
X200148996Y-64206201D02*
G01*
X200148992Y-64206205D01*
X200119999Y-64229999D01*
X200096205Y-64258992D01*
X198080199Y-66275000D01*
X198018061Y-66275000D01*
X197818102Y-66314774D01*
X197629744Y-66392795D01*
X197460226Y-66506063D01*
X197316063Y-66650226D01*
X197202795Y-66819744D01*
X197124774Y-67008102D01*
X197085000Y-67208061D01*
X197085000Y-67411939D01*
X197124774Y-67611898D01*
X197202795Y-67800256D01*
X197316063Y-67969774D01*
X197460226Y-68113937D01*
X197629744Y-68227205D01*
X197818102Y-68305226D01*
X198018061Y-68345000D01*
X198221939Y-68345000D01*
X198421898Y-68305226D01*
X198610256Y-68227205D01*
X198779774Y-68113937D01*
X198923937Y-67969774D01*
X199037205Y-67800256D01*
X199115226Y-67611898D01*
X199155000Y-67411939D01*
X199155000Y-67349801D01*
X200974803Y-65530000D01*
X205425199Y-65530000D01*
X210256200Y-70361002D01*
X210279999Y-70390001D01*
X210308997Y-70413799D01*
X210309002Y-70413803D01*
X212796205Y-72901008D01*
X212819999Y-72930001D01*
X212848992Y-72953795D01*
X212848996Y-72953799D01*
X212905568Y-73000226D01*
X212935724Y-73024974D01*
X213067753Y-73095546D01*
X213211014Y-73139003D01*
X213322667Y-73150000D01*
X213322676Y-73150000D01*
X213359999Y-73153676D01*
X213397322Y-73150000D01*
X217736289Y-73150000D01*
X217780226Y-73193937D01*
X217949744Y-73307205D01*
X218138102Y-73385226D01*
X218338061Y-73425000D01*
X218541939Y-73425000D01*
X218741898Y-73385226D01*
X218930256Y-73307205D01*
X219099774Y-73193937D01*
X219243937Y-73049774D01*
X219357205Y-72880256D01*
X219435226Y-72691898D01*
X219475000Y-72491939D01*
X219475000Y-72288061D01*
X219435226Y-72088102D01*
X219357205Y-71899744D01*
X219243937Y-71730226D01*
X219099774Y-71586063D01*
X218930256Y-71472795D01*
X218741898Y-71394774D01*
X218541939Y-71355000D01*
X218338061Y-71355000D01*
X218138102Y-71394774D01*
X217949744Y-71472795D01*
X217780226Y-71586063D01*
X217736289Y-71630000D01*
X213674803Y-71630000D01*
X211894801Y-69850000D01*
X212129802Y-69615000D01*
X212191939Y-69615000D01*
X212391898Y-69575226D01*
X212580256Y-69497205D01*
X212749774Y-69383937D01*
X212893937Y-69239774D01*
X213007205Y-69070256D01*
X213085226Y-68881898D01*
X213125000Y-68681939D01*
X213125000Y-68478061D01*
X213113077Y-68418120D01*
X213248212Y-68445000D01*
X213471788Y-68445000D01*
X213691067Y-68401383D01*
X213897624Y-68315824D01*
X213995000Y-68250759D01*
X214092376Y-68315824D01*
X214298933Y-68401383D01*
X214518212Y-68445000D01*
X214741788Y-68445000D01*
X214961067Y-68401383D01*
X215167624Y-68315824D01*
X215353520Y-68191612D01*
X215511612Y-68033520D01*
X215635824Y-67847624D01*
X215721383Y-67641067D01*
X215765000Y-67421788D01*
X215765000Y-67198212D01*
X215721383Y-66978933D01*
X215635824Y-66772376D01*
X215511612Y-66586480D01*
X215353520Y-66428388D01*
X215167624Y-66304176D01*
X214961067Y-66218617D01*
X214741788Y-66175000D01*
X214518212Y-66175000D01*
X214298933Y-66218617D01*
X214092376Y-66304176D01*
X213995000Y-66369241D01*
X213897624Y-66304176D01*
X213691067Y-66218617D01*
X213471788Y-66175000D01*
X213248212Y-66175000D01*
X213028933Y-66218617D01*
X212822376Y-66304176D01*
X212725000Y-66369241D01*
X212627624Y-66304176D01*
X212421067Y-66218617D01*
X212201788Y-66175000D01*
X211978212Y-66175000D01*
X211758933Y-66218617D01*
X211647226Y-66264888D01*
X211564180Y-66220498D01*
X211444482Y-66184188D01*
X211320000Y-66171928D01*
X211105750Y-66175000D01*
X210947000Y-66333750D01*
X210947000Y-67183000D01*
X210958026Y-67183000D01*
X210955000Y-67198212D01*
X210955000Y-67421788D01*
X210958026Y-67437000D01*
X210947000Y-67437000D01*
X210947000Y-68286250D01*
X211068905Y-68408155D01*
X211055000Y-68478061D01*
X211055000Y-68540198D01*
X210820000Y-68775198D01*
X210490430Y-68445628D01*
X210534250Y-68445000D01*
X210693000Y-68286250D01*
X210693000Y-67437000D01*
X209843750Y-67437000D01*
X209685000Y-67595750D01*
X209684372Y-67639570D01*
X208854802Y-66810000D01*
X209681928Y-66810000D01*
X209685000Y-67024250D01*
X209843750Y-67183000D01*
X210693000Y-67183000D01*
X210693000Y-66333750D01*
X210534250Y-66175000D01*
X210320000Y-66171928D01*
X210195518Y-66184188D01*
X210075820Y-66220498D01*
X209965506Y-66279463D01*
X209868815Y-66358815D01*
X209789463Y-66455506D01*
X209730498Y-66565820D01*
X209694188Y-66685518D01*
X209681928Y-66810000D01*
X208854802Y-66810000D01*
X206303804Y-64259003D01*
X206280001Y-64229999D01*
X206194707Y-64160000D01*
X220320000Y-64160000D01*
X220320001Y-93320000D01*
X191160000Y-93320000D01*
X191160000Y-89325000D01*
X191976928Y-89325000D01*
X191989188Y-89449482D01*
X192025498Y-89569180D01*
X192084463Y-89679494D01*
X192163815Y-89776185D01*
X192260506Y-89855537D01*
X192370820Y-89914502D01*
X192490518Y-89950812D01*
X192615000Y-89963072D01*
X192754250Y-89960000D01*
X192913000Y-89801250D01*
X192913000Y-89027000D01*
X193167000Y-89027000D01*
X193167000Y-89801250D01*
X193325750Y-89960000D01*
X193465000Y-89963072D01*
X193589482Y-89950812D01*
X193709180Y-89914502D01*
X193819494Y-89855537D01*
X193916185Y-89776185D01*
X193995537Y-89679494D01*
X194054502Y-89569180D01*
X194090812Y-89449482D01*
X194103072Y-89325000D01*
X195786928Y-89325000D01*
X195799188Y-89449482D01*
X195835498Y-89569180D01*
X195894463Y-89679494D01*
X195973815Y-89776185D01*
X196070506Y-89855537D01*
X196180820Y-89914502D01*
X196300518Y-89950812D01*
X196425000Y-89963072D01*
X196564250Y-89960000D01*
X196723000Y-89801250D01*
X196723000Y-89027000D01*
X196977000Y-89027000D01*
X196977000Y-89801250D01*
X197135750Y-89960000D01*
X197275000Y-89963072D01*
X197399482Y-89950812D01*
X197519180Y-89914502D01*
X197629494Y-89855537D01*
X197726185Y-89776185D01*
X197805537Y-89679494D01*
X197864502Y-89569180D01*
X197900812Y-89449482D01*
X197913072Y-89325000D01*
X197910000Y-89185750D01*
X197751250Y-89027000D01*
X196977000Y-89027000D01*
X196723000Y-89027000D01*
X195948750Y-89027000D01*
X195790000Y-89185750D01*
X195786928Y-89325000D01*
X194103072Y-89325000D01*
X194100000Y-89185750D01*
X193941250Y-89027000D01*
X193167000Y-89027000D01*
X192913000Y-89027000D01*
X192138750Y-89027000D01*
X191980000Y-89185750D01*
X191976928Y-89325000D01*
X191160000Y-89325000D01*
X191160000Y-88798061D01*
X198355000Y-88798061D01*
X198355000Y-89001939D01*
X198394774Y-89201898D01*
X198472795Y-89390256D01*
X198586063Y-89559774D01*
X198730226Y-89703937D01*
X198899744Y-89817205D01*
X199088102Y-89895226D01*
X199288061Y-89935000D01*
X199350199Y-89935000D01*
X199892989Y-90477791D01*
X199880506Y-90484463D01*
X199783815Y-90563815D01*
X199704463Y-90660506D01*
X199645498Y-90770820D01*
X199609188Y-90890518D01*
X199596928Y-91015000D01*
X199596928Y-91865000D01*
X199609188Y-91989482D01*
X199645498Y-92109180D01*
X199704463Y-92219494D01*
X199783815Y-92316185D01*
X199880506Y-92395537D01*
X199990820Y-92454502D01*
X200110518Y-92490812D01*
X200235000Y-92503072D01*
X201085000Y-92503072D01*
X201209482Y-92490812D01*
X201329180Y-92454502D01*
X201439494Y-92395537D01*
X201536185Y-92316185D01*
X201615537Y-92219494D01*
X201674502Y-92109180D01*
X201710812Y-91989482D01*
X201723072Y-91865000D01*
X209756928Y-91865000D01*
X209769188Y-91989482D01*
X209805498Y-92109180D01*
X209864463Y-92219494D01*
X209943815Y-92316185D01*
X210040506Y-92395537D01*
X210150820Y-92454502D01*
X210270518Y-92490812D01*
X210395000Y-92503072D01*
X210534250Y-92500000D01*
X210693000Y-92341250D01*
X210693000Y-91567000D01*
X210947000Y-91567000D01*
X210947000Y-92341250D01*
X211105750Y-92500000D01*
X211245000Y-92503072D01*
X211369482Y-92490812D01*
X211489180Y-92454502D01*
X211599494Y-92395537D01*
X211696185Y-92316185D01*
X211775537Y-92219494D01*
X211834502Y-92109180D01*
X211870812Y-91989482D01*
X211883072Y-91865000D01*
X211880000Y-91725750D01*
X211721250Y-91567000D01*
X210947000Y-91567000D01*
X210693000Y-91567000D01*
X209918750Y-91567000D01*
X209760000Y-91725750D01*
X209756928Y-91865000D01*
X201723072Y-91865000D01*
X201723072Y-91015000D01*
X201714701Y-90930000D01*
X209765299Y-90930000D01*
X209756928Y-91015000D01*
X209760000Y-91154250D01*
X209918750Y-91313000D01*
X210693000Y-91313000D01*
X210693000Y-91293000D01*
X210947000Y-91293000D01*
X210947000Y-91313000D01*
X211721250Y-91313000D01*
X211880000Y-91154250D01*
X211883072Y-91015000D01*
X211874701Y-90930000D01*
X216088954Y-90930000D01*
X216139463Y-91024494D01*
X216218815Y-91121185D01*
X216315506Y-91200537D01*
X216425820Y-91259502D01*
X216545518Y-91295812D01*
X216670000Y-91308072D01*
X217670000Y-91308072D01*
X217794482Y-91295812D01*
X217914180Y-91259502D01*
X218024494Y-91200537D01*
X218121185Y-91121185D01*
X218200537Y-91024494D01*
X218259502Y-90914180D01*
X218295812Y-90794482D01*
X218308072Y-90670000D01*
X218308072Y-89670000D01*
X218295812Y-89545518D01*
X218259502Y-89425820D01*
X218215112Y-89342774D01*
X218261383Y-89231067D01*
X218305000Y-89011788D01*
X218305000Y-88788212D01*
X218261383Y-88568933D01*
X218175824Y-88362376D01*
X218110759Y-88265000D01*
X218175824Y-88167624D01*
X218261383Y-87961067D01*
X218305000Y-87741788D01*
X218305000Y-87518212D01*
X218261383Y-87298933D01*
X218175824Y-87092376D01*
X218110759Y-86995000D01*
X218175824Y-86897624D01*
X218261383Y-86691067D01*
X218305000Y-86471788D01*
X218305000Y-86248212D01*
X218261383Y-86028933D01*
X218175824Y-85822376D01*
X218107647Y-85720342D01*
X218157123Y-85650206D01*
X218247446Y-85446864D01*
X218264119Y-85391874D01*
X218137954Y-85217000D01*
X217297000Y-85217000D01*
X217297000Y-85228026D01*
X217281788Y-85225000D01*
X217058212Y-85225000D01*
X217043000Y-85228026D01*
X217043000Y-85217000D01*
X216202046Y-85217000D01*
X216075881Y-85391874D01*
X216092554Y-85446864D01*
X216160576Y-85600000D01*
X209434803Y-85600000D01*
X207543015Y-83708212D01*
X216035000Y-83708212D01*
X216035000Y-83931788D01*
X216078617Y-84151067D01*
X216164176Y-84357624D01*
X216232353Y-84459658D01*
X216182877Y-84529794D01*
X216092554Y-84733136D01*
X216075881Y-84788126D01*
X216202046Y-84963000D01*
X217043000Y-84963000D01*
X217043000Y-84951974D01*
X217058212Y-84955000D01*
X217281788Y-84955000D01*
X217297000Y-84951974D01*
X217297000Y-84963000D01*
X218137954Y-84963000D01*
X218264119Y-84788126D01*
X218247446Y-84733136D01*
X218157123Y-84529794D01*
X218107647Y-84459658D01*
X218175824Y-84357624D01*
X218261383Y-84151067D01*
X218305000Y-83931788D01*
X218305000Y-83708212D01*
X218261383Y-83488933D01*
X218175824Y-83282376D01*
X218051612Y-83096480D01*
X217893520Y-82938388D01*
X217707624Y-82814176D01*
X217501067Y-82728617D01*
X217281788Y-82685000D01*
X217058212Y-82685000D01*
X216838933Y-82728617D01*
X216632376Y-82814176D01*
X216446480Y-82938388D01*
X216288388Y-83096480D01*
X216164176Y-83282376D01*
X216078617Y-83488933D01*
X216035000Y-83708212D01*
X207543015Y-83708212D01*
X203805001Y-79970199D01*
X203805001Y-79908061D01*
X203765227Y-79708102D01*
X203687206Y-79519744D01*
X203573938Y-79350226D01*
X203429775Y-79206063D01*
X203260257Y-79092795D01*
X203071899Y-79014774D01*
X202871940Y-78975000D01*
X202668062Y-78975000D01*
X202468103Y-79014774D01*
X202279745Y-79092795D01*
X202110227Y-79206063D01*
X201966064Y-79350226D01*
X201852796Y-79519744D01*
X201774775Y-79708102D01*
X201735001Y-79908061D01*
X201735001Y-80111939D01*
X201774775Y-80311898D01*
X201852796Y-80500256D01*
X201966064Y-80669774D01*
X202110227Y-80813937D01*
X202279745Y-80927205D01*
X202468103Y-81005226D01*
X202668062Y-81045000D01*
X202730200Y-81045000D01*
X208555199Y-86870000D01*
X207324802Y-86870000D01*
X203610242Y-83155441D01*
X203687206Y-83040256D01*
X203765227Y-82851898D01*
X203805001Y-82651939D01*
X203805001Y-82448061D01*
X203765227Y-82248102D01*
X203687206Y-82059744D01*
X203573938Y-81890226D01*
X203429775Y-81746063D01*
X203260257Y-81632795D01*
X203071899Y-81554774D01*
X202871940Y-81515000D01*
X202668062Y-81515000D01*
X202468103Y-81554774D01*
X202279745Y-81632795D01*
X202110227Y-81746063D01*
X201966064Y-81890226D01*
X201852796Y-82059744D01*
X201774775Y-82248102D01*
X201735001Y-82448061D01*
X201735001Y-82550200D01*
X201695000Y-82510199D01*
X201695000Y-82448061D01*
X201655226Y-82248102D01*
X201577205Y-82059744D01*
X201463937Y-81890226D01*
X201319774Y-81746063D01*
X201150256Y-81632795D01*
X200961898Y-81554774D01*
X200761939Y-81515000D01*
X200558061Y-81515000D01*
X200358102Y-81554774D01*
X200169744Y-81632795D01*
X200000226Y-81746063D01*
X199856063Y-81890226D01*
X199742795Y-82059744D01*
X199664774Y-82248102D01*
X199625000Y-82448061D01*
X199625000Y-82651939D01*
X199664774Y-82851898D01*
X199742795Y-83040256D01*
X199856063Y-83209774D01*
X200000226Y-83353937D01*
X200169744Y-83467205D01*
X200358102Y-83545226D01*
X200558061Y-83585000D01*
X200620199Y-83585000D01*
X206445198Y-89410000D01*
X200974802Y-89410000D01*
X200425000Y-88860199D01*
X200425000Y-88798061D01*
X200385226Y-88598102D01*
X200307205Y-88409744D01*
X200193937Y-88240226D01*
X200049774Y-88096063D01*
X199880256Y-87982795D01*
X199691898Y-87904774D01*
X199491939Y-87865000D01*
X199288061Y-87865000D01*
X199088102Y-87904774D01*
X198899744Y-87982795D01*
X198730226Y-88096063D01*
X198586063Y-88240226D01*
X198472795Y-88409744D01*
X198394774Y-88598102D01*
X198355000Y-88798061D01*
X191160000Y-88798061D01*
X191160000Y-88475000D01*
X191976928Y-88475000D01*
X191980000Y-88614250D01*
X192138750Y-88773000D01*
X192913000Y-88773000D01*
X192913000Y-87998750D01*
X193167000Y-87998750D01*
X193167000Y-88773000D01*
X193941250Y-88773000D01*
X194100000Y-88614250D01*
X194103072Y-88475000D01*
X195786928Y-88475000D01*
X195790000Y-88614250D01*
X195948750Y-88773000D01*
X196723000Y-88773000D01*
X196723000Y-87998750D01*
X196977000Y-87998750D01*
X196977000Y-88773000D01*
X197751250Y-88773000D01*
X197910000Y-88614250D01*
X197913072Y-88475000D01*
X197900812Y-88350518D01*
X197864502Y-88230820D01*
X197805537Y-88120506D01*
X197726185Y-88023815D01*
X197629494Y-87944463D01*
X197519180Y-87885498D01*
X197399482Y-87849188D01*
X197275000Y-87836928D01*
X197135750Y-87840000D01*
X196977000Y-87998750D01*
X196723000Y-87998750D01*
X196564250Y-87840000D01*
X196425000Y-87836928D01*
X196300518Y-87849188D01*
X196180820Y-87885498D01*
X196070506Y-87944463D01*
X195973815Y-88023815D01*
X195894463Y-88120506D01*
X195835498Y-88230820D01*
X195799188Y-88350518D01*
X195786928Y-88475000D01*
X194103072Y-88475000D01*
X194090812Y-88350518D01*
X194054502Y-88230820D01*
X193995537Y-88120506D01*
X193916185Y-88023815D01*
X193819494Y-87944463D01*
X193709180Y-87885498D01*
X193589482Y-87849188D01*
X193465000Y-87836928D01*
X193325750Y-87840000D01*
X193167000Y-87998750D01*
X192913000Y-87998750D01*
X192754250Y-87840000D01*
X192615000Y-87836928D01*
X192490518Y-87849188D01*
X192370820Y-87885498D01*
X192260506Y-87944463D01*
X192163815Y-88023815D01*
X192084463Y-88120506D01*
X192025498Y-88230820D01*
X191989188Y-88350518D01*
X191976928Y-88475000D01*
X191160000Y-88475000D01*
X191160000Y-84274707D01*
X191206201Y-84331002D01*
X191230000Y-84360001D01*
X191258998Y-84383799D01*
X191976928Y-85101730D01*
X191976928Y-85515000D01*
X191989188Y-85639482D01*
X192025498Y-85759180D01*
X192084463Y-85869494D01*
X192163815Y-85966185D01*
X192260506Y-86045537D01*
X192370820Y-86104502D01*
X192490518Y-86140812D01*
X192615000Y-86153072D01*
X193465000Y-86153072D01*
X193589482Y-86140812D01*
X193709180Y-86104502D01*
X193819494Y-86045537D01*
X193916185Y-85966185D01*
X193995537Y-85869494D01*
X194054502Y-85759180D01*
X194090812Y-85639482D01*
X194103072Y-85515000D01*
X194103072Y-84665000D01*
X194090812Y-84540518D01*
X194054502Y-84420820D01*
X193995537Y-84310506D01*
X193916185Y-84213815D01*
X193819494Y-84134463D01*
X193709180Y-84075498D01*
X193589482Y-84039188D01*
X193465000Y-84026928D01*
X193051730Y-84026928D01*
X192530000Y-83505199D01*
X192530000Y-73558061D01*
X194545000Y-73558061D01*
X194545000Y-73761939D01*
X194584774Y-73961898D01*
X194662795Y-74150256D01*
X194776063Y-74319774D01*
X194820001Y-74363712D01*
X194820001Y-74892658D01*
X194820000Y-74892668D01*
X194820001Y-83782668D01*
X194816324Y-83820000D01*
X194830998Y-83968985D01*
X194874454Y-84112246D01*
X194945026Y-84244276D01*
X195016201Y-84331002D01*
X195040000Y-84360001D01*
X195068998Y-84383799D01*
X195786928Y-85101730D01*
X195786928Y-85515000D01*
X195799188Y-85639482D01*
X195835498Y-85759180D01*
X195894463Y-85869494D01*
X195973815Y-85966185D01*
X196070506Y-86045537D01*
X196180820Y-86104502D01*
X196300518Y-86140812D01*
X196425000Y-86153072D01*
X197275000Y-86153072D01*
X197399482Y-86140812D01*
X197519180Y-86104502D01*
X197629494Y-86045537D01*
X197726185Y-85966185D01*
X197805537Y-85869494D01*
X197864502Y-85759180D01*
X197900812Y-85639482D01*
X197913072Y-85515000D01*
X197913072Y-84665000D01*
X197900812Y-84540518D01*
X197864502Y-84420820D01*
X197805537Y-84310506D01*
X197726185Y-84213815D01*
X197629494Y-84134463D01*
X197519180Y-84075498D01*
X197399482Y-84039188D01*
X197275000Y-84026928D01*
X196861730Y-84026928D01*
X196340000Y-83505199D01*
X196340000Y-82409801D01*
X199060000Y-85129802D01*
X199060000Y-85191939D01*
X199099774Y-85391898D01*
X199177795Y-85580256D01*
X199291063Y-85749774D01*
X199435226Y-85893937D01*
X199604744Y-86007205D01*
X199793102Y-86085226D01*
X199993061Y-86125000D01*
X200196939Y-86125000D01*
X200396898Y-86085226D01*
X200585256Y-86007205D01*
X200754774Y-85893937D01*
X200898937Y-85749774D01*
X201012205Y-85580256D01*
X201090226Y-85391898D01*
X201130000Y-85191939D01*
X201130000Y-84988061D01*
X201090226Y-84788102D01*
X201012205Y-84599744D01*
X200898937Y-84430226D01*
X200754774Y-84286063D01*
X200585256Y-84172795D01*
X200396898Y-84094774D01*
X200196939Y-84055000D01*
X200134802Y-84055000D01*
X197610000Y-81530199D01*
X197610000Y-74363711D01*
X197653937Y-74319774D01*
X197767205Y-74150256D01*
X197845226Y-73961898D01*
X197885000Y-73761939D01*
X197885000Y-73558061D01*
X197845226Y-73358102D01*
X197767205Y-73169744D01*
X197653937Y-73000226D01*
X197509774Y-72856063D01*
X197340256Y-72742795D01*
X197151898Y-72664774D01*
X196951939Y-72625000D01*
X196748061Y-72625000D01*
X196548102Y-72664774D01*
X196359744Y-72742795D01*
X196215000Y-72839510D01*
X196070256Y-72742795D01*
X195881898Y-72664774D01*
X195681939Y-72625000D01*
X195478061Y-72625000D01*
X195278102Y-72664774D01*
X195089744Y-72742795D01*
X194920226Y-72856063D01*
X194776063Y-73000226D01*
X194662795Y-73169744D01*
X194584774Y-73358102D01*
X194545000Y-73558061D01*
X192530000Y-73558061D01*
X192530000Y-73150000D01*
X192766288Y-73150000D01*
X192810225Y-73193937D01*
X192979743Y-73307205D01*
X193168101Y-73385226D01*
X193368060Y-73425000D01*
X193571938Y-73425000D01*
X193771897Y-73385226D01*
X193960255Y-73307205D01*
X194129773Y-73193937D01*
X194273936Y-73049774D01*
X194387204Y-72880256D01*
X194465225Y-72691898D01*
X194504999Y-72491939D01*
X194504999Y-72288061D01*
X194465225Y-72088102D01*
X194387204Y-71899744D01*
X194273936Y-71730226D01*
X194129773Y-71586063D01*
X193960255Y-71472795D01*
X193771897Y-71394774D01*
X193571938Y-71355000D01*
X193368060Y-71355000D01*
X193168101Y-71394774D01*
X192979743Y-71472795D01*
X192810225Y-71586063D01*
X192766288Y-71630000D01*
X191807333Y-71630000D01*
X191770000Y-71626323D01*
X191732667Y-71630000D01*
X191621014Y-71640997D01*
X191477753Y-71684454D01*
X191345724Y-71755026D01*
X191229999Y-71849999D01*
X191160000Y-71935293D01*
X191160000Y-64160000D01*
X200205293Y-64160000D01*
X200148996Y-64206201D01*
G37*
%TD.AperFunction*%
%TD*%
M02*
