%TF.GenerationSoftware,KiCad,Pcbnew,(5.1.12)-1*%
%TF.CreationDate,2022-02-08T18:48:31+00:00*%
%TF.ProjectId,Watch_PCB_V2,57617463-685f-4504-9342-5f56322e6b69,rev?*%
%TF.SameCoordinates,Original*%
%TF.FileFunction,Paste,Top*%
%TF.FilePolarity,Positive*%
%FSLAX46Y46*%
G04 Gerber Fmt 4.6, Leading zero omitted, Abs format (unit mm)*
G04 Created by KiCad (PCBNEW (5.1.12)-1) date 2022-02-08 18:48:31*
%MOMM*%
%LPD*%
G01*
G04 APERTURE LIST*
%ADD10R,1.600000X0.550000*%
%ADD11R,0.550000X1.600000*%
G04 APERTURE END LIST*
%TO.C,C1*%
G36*
G01*
X203807500Y-92090001D02*
X203807500Y-90789999D01*
G75*
G02*
X204057499Y-90540000I249999J0D01*
G01*
X204882501Y-90540000D01*
G75*
G02*
X205132500Y-90789999I0J-249999D01*
G01*
X205132500Y-92090001D01*
G75*
G02*
X204882501Y-92340000I-249999J0D01*
G01*
X204057499Y-92340000D01*
G75*
G02*
X203807500Y-92090001I0J249999D01*
G01*
G37*
G36*
G01*
X206932500Y-92090001D02*
X206932500Y-90789999D01*
G75*
G02*
X207182499Y-90540000I249999J0D01*
G01*
X208007501Y-90540000D01*
G75*
G02*
X208257500Y-90789999I0J-249999D01*
G01*
X208257500Y-92090001D01*
G75*
G02*
X208007501Y-92340000I-249999J0D01*
G01*
X207182499Y-92340000D01*
G75*
G02*
X206932500Y-92090001I0J249999D01*
G01*
G37*
%TD*%
D10*
%TO.C,MCU*%
X193870000Y-73400000D03*
X193870000Y-74200000D03*
X193870000Y-75000000D03*
X193870000Y-75800000D03*
X193870000Y-76600000D03*
X193870000Y-77400000D03*
X193870000Y-78200000D03*
X193870000Y-79000000D03*
D11*
X195320000Y-80450000D03*
X196120000Y-80450000D03*
X196920000Y-80450000D03*
X197720000Y-80450000D03*
X198520000Y-80450000D03*
X199320000Y-80450000D03*
X200120000Y-80450000D03*
X200920000Y-80450000D03*
D10*
X202370000Y-79000000D03*
X202370000Y-78200000D03*
X202370000Y-77400000D03*
X202370000Y-76600000D03*
X202370000Y-75800000D03*
X202370000Y-75000000D03*
X202370000Y-74200000D03*
X202370000Y-73400000D03*
D11*
X200920000Y-71950000D03*
X200120000Y-71950000D03*
X199320000Y-71950000D03*
X198520000Y-71950000D03*
X197720000Y-71950000D03*
X196920000Y-71950000D03*
X196120000Y-71950000D03*
X195320000Y-71950000D03*
%TD*%
%TO.C,R1*%
G36*
G01*
X202555000Y-88560000D02*
X201305000Y-88560000D01*
G75*
G02*
X201055000Y-88310000I0J250000D01*
G01*
X201055000Y-87510000D01*
G75*
G02*
X201305000Y-87260000I250000J0D01*
G01*
X202555000Y-87260000D01*
G75*
G02*
X202805000Y-87510000I0J-250000D01*
G01*
X202805000Y-88310000D01*
G75*
G02*
X202555000Y-88560000I-250000J0D01*
G01*
G37*
G36*
G01*
X202555000Y-85460000D02*
X201305000Y-85460000D01*
G75*
G02*
X201055000Y-85210000I0J250000D01*
G01*
X201055000Y-84410000D01*
G75*
G02*
X201305000Y-84160000I250000J0D01*
G01*
X202555000Y-84160000D01*
G75*
G02*
X202805000Y-84410000I0J-250000D01*
G01*
X202805000Y-85210000D01*
G75*
G02*
X202555000Y-85460000I-250000J0D01*
G01*
G37*
%TD*%
%TO.C,R2*%
G36*
G01*
X203110000Y-67935000D02*
X203110000Y-66685000D01*
G75*
G02*
X203360000Y-66435000I250000J0D01*
G01*
X204160000Y-66435000D01*
G75*
G02*
X204410000Y-66685000I0J-250000D01*
G01*
X204410000Y-67935000D01*
G75*
G02*
X204160000Y-68185000I-250000J0D01*
G01*
X203360000Y-68185000D01*
G75*
G02*
X203110000Y-67935000I0J250000D01*
G01*
G37*
G36*
G01*
X200010000Y-67935000D02*
X200010000Y-66685000D01*
G75*
G02*
X200260000Y-66435000I250000J0D01*
G01*
X201060000Y-66435000D01*
G75*
G02*
X201310000Y-66685000I0J-250000D01*
G01*
X201310000Y-67935000D01*
G75*
G02*
X201060000Y-68185000I-250000J0D01*
G01*
X200260000Y-68185000D01*
G75*
G02*
X200010000Y-67935000I0J250000D01*
G01*
G37*
%TD*%
%TO.C,R3*%
G36*
G01*
X193660000Y-67935000D02*
X193660000Y-66685000D01*
G75*
G02*
X193910000Y-66435000I250000J0D01*
G01*
X194710000Y-66435000D01*
G75*
G02*
X194960000Y-66685000I0J-250000D01*
G01*
X194960000Y-67935000D01*
G75*
G02*
X194710000Y-68185000I-250000J0D01*
G01*
X193910000Y-68185000D01*
G75*
G02*
X193660000Y-67935000I0J250000D01*
G01*
G37*
G36*
G01*
X196760000Y-67935000D02*
X196760000Y-66685000D01*
G75*
G02*
X197010000Y-66435000I250000J0D01*
G01*
X197810000Y-66435000D01*
G75*
G02*
X198060000Y-66685000I0J-250000D01*
G01*
X198060000Y-67935000D01*
G75*
G02*
X197810000Y-68185000I-250000J0D01*
G01*
X197010000Y-68185000D01*
G75*
G02*
X196760000Y-67935000I0J250000D01*
G01*
G37*
%TD*%
%TO.C,RTC*%
G36*
G01*
X206415000Y-71905000D02*
X206415000Y-71605000D01*
G75*
G02*
X206565000Y-71455000I150000J0D01*
G01*
X208315000Y-71455000D01*
G75*
G02*
X208465000Y-71605000I0J-150000D01*
G01*
X208465000Y-71905000D01*
G75*
G02*
X208315000Y-72055000I-150000J0D01*
G01*
X206565000Y-72055000D01*
G75*
G02*
X206415000Y-71905000I0J150000D01*
G01*
G37*
G36*
G01*
X206415000Y-73175000D02*
X206415000Y-72875000D01*
G75*
G02*
X206565000Y-72725000I150000J0D01*
G01*
X208315000Y-72725000D01*
G75*
G02*
X208465000Y-72875000I0J-150000D01*
G01*
X208465000Y-73175000D01*
G75*
G02*
X208315000Y-73325000I-150000J0D01*
G01*
X206565000Y-73325000D01*
G75*
G02*
X206415000Y-73175000I0J150000D01*
G01*
G37*
G36*
G01*
X206415000Y-74445000D02*
X206415000Y-74145000D01*
G75*
G02*
X206565000Y-73995000I150000J0D01*
G01*
X208315000Y-73995000D01*
G75*
G02*
X208465000Y-74145000I0J-150000D01*
G01*
X208465000Y-74445000D01*
G75*
G02*
X208315000Y-74595000I-150000J0D01*
G01*
X206565000Y-74595000D01*
G75*
G02*
X206415000Y-74445000I0J150000D01*
G01*
G37*
G36*
G01*
X206415000Y-75715000D02*
X206415000Y-75415000D01*
G75*
G02*
X206565000Y-75265000I150000J0D01*
G01*
X208315000Y-75265000D01*
G75*
G02*
X208465000Y-75415000I0J-150000D01*
G01*
X208465000Y-75715000D01*
G75*
G02*
X208315000Y-75865000I-150000J0D01*
G01*
X206565000Y-75865000D01*
G75*
G02*
X206415000Y-75715000I0J150000D01*
G01*
G37*
G36*
G01*
X206415000Y-76985000D02*
X206415000Y-76685000D01*
G75*
G02*
X206565000Y-76535000I150000J0D01*
G01*
X208315000Y-76535000D01*
G75*
G02*
X208465000Y-76685000I0J-150000D01*
G01*
X208465000Y-76985000D01*
G75*
G02*
X208315000Y-77135000I-150000J0D01*
G01*
X206565000Y-77135000D01*
G75*
G02*
X206415000Y-76985000I0J150000D01*
G01*
G37*
G36*
G01*
X206415000Y-78255000D02*
X206415000Y-77955000D01*
G75*
G02*
X206565000Y-77805000I150000J0D01*
G01*
X208315000Y-77805000D01*
G75*
G02*
X208465000Y-77955000I0J-150000D01*
G01*
X208465000Y-78255000D01*
G75*
G02*
X208315000Y-78405000I-150000J0D01*
G01*
X206565000Y-78405000D01*
G75*
G02*
X206415000Y-78255000I0J150000D01*
G01*
G37*
G36*
G01*
X206415000Y-79525000D02*
X206415000Y-79225000D01*
G75*
G02*
X206565000Y-79075000I150000J0D01*
G01*
X208315000Y-79075000D01*
G75*
G02*
X208465000Y-79225000I0J-150000D01*
G01*
X208465000Y-79525000D01*
G75*
G02*
X208315000Y-79675000I-150000J0D01*
G01*
X206565000Y-79675000D01*
G75*
G02*
X206415000Y-79525000I0J150000D01*
G01*
G37*
G36*
G01*
X206415000Y-80795000D02*
X206415000Y-80495000D01*
G75*
G02*
X206565000Y-80345000I150000J0D01*
G01*
X208315000Y-80345000D01*
G75*
G02*
X208465000Y-80495000I0J-150000D01*
G01*
X208465000Y-80795000D01*
G75*
G02*
X208315000Y-80945000I-150000J0D01*
G01*
X206565000Y-80945000D01*
G75*
G02*
X206415000Y-80795000I0J150000D01*
G01*
G37*
G36*
G01*
X215715000Y-80795000D02*
X215715000Y-80495000D01*
G75*
G02*
X215865000Y-80345000I150000J0D01*
G01*
X217615000Y-80345000D01*
G75*
G02*
X217765000Y-80495000I0J-150000D01*
G01*
X217765000Y-80795000D01*
G75*
G02*
X217615000Y-80945000I-150000J0D01*
G01*
X215865000Y-80945000D01*
G75*
G02*
X215715000Y-80795000I0J150000D01*
G01*
G37*
G36*
G01*
X215715000Y-79525000D02*
X215715000Y-79225000D01*
G75*
G02*
X215865000Y-79075000I150000J0D01*
G01*
X217615000Y-79075000D01*
G75*
G02*
X217765000Y-79225000I0J-150000D01*
G01*
X217765000Y-79525000D01*
G75*
G02*
X217615000Y-79675000I-150000J0D01*
G01*
X215865000Y-79675000D01*
G75*
G02*
X215715000Y-79525000I0J150000D01*
G01*
G37*
G36*
G01*
X215715000Y-78255000D02*
X215715000Y-77955000D01*
G75*
G02*
X215865000Y-77805000I150000J0D01*
G01*
X217615000Y-77805000D01*
G75*
G02*
X217765000Y-77955000I0J-150000D01*
G01*
X217765000Y-78255000D01*
G75*
G02*
X217615000Y-78405000I-150000J0D01*
G01*
X215865000Y-78405000D01*
G75*
G02*
X215715000Y-78255000I0J150000D01*
G01*
G37*
G36*
G01*
X215715000Y-76985000D02*
X215715000Y-76685000D01*
G75*
G02*
X215865000Y-76535000I150000J0D01*
G01*
X217615000Y-76535000D01*
G75*
G02*
X217765000Y-76685000I0J-150000D01*
G01*
X217765000Y-76985000D01*
G75*
G02*
X217615000Y-77135000I-150000J0D01*
G01*
X215865000Y-77135000D01*
G75*
G02*
X215715000Y-76985000I0J150000D01*
G01*
G37*
G36*
G01*
X215715000Y-75715000D02*
X215715000Y-75415000D01*
G75*
G02*
X215865000Y-75265000I150000J0D01*
G01*
X217615000Y-75265000D01*
G75*
G02*
X217765000Y-75415000I0J-150000D01*
G01*
X217765000Y-75715000D01*
G75*
G02*
X217615000Y-75865000I-150000J0D01*
G01*
X215865000Y-75865000D01*
G75*
G02*
X215715000Y-75715000I0J150000D01*
G01*
G37*
G36*
G01*
X215715000Y-74445000D02*
X215715000Y-74145000D01*
G75*
G02*
X215865000Y-73995000I150000J0D01*
G01*
X217615000Y-73995000D01*
G75*
G02*
X217765000Y-74145000I0J-150000D01*
G01*
X217765000Y-74445000D01*
G75*
G02*
X217615000Y-74595000I-150000J0D01*
G01*
X215865000Y-74595000D01*
G75*
G02*
X215715000Y-74445000I0J150000D01*
G01*
G37*
G36*
G01*
X215715000Y-73175000D02*
X215715000Y-72875000D01*
G75*
G02*
X215865000Y-72725000I150000J0D01*
G01*
X217615000Y-72725000D01*
G75*
G02*
X217765000Y-72875000I0J-150000D01*
G01*
X217765000Y-73175000D01*
G75*
G02*
X217615000Y-73325000I-150000J0D01*
G01*
X215865000Y-73325000D01*
G75*
G02*
X215715000Y-73175000I0J150000D01*
G01*
G37*
G36*
G01*
X215715000Y-71905000D02*
X215715000Y-71605000D01*
G75*
G02*
X215865000Y-71455000I150000J0D01*
G01*
X217615000Y-71455000D01*
G75*
G02*
X217765000Y-71605000I0J-150000D01*
G01*
X217765000Y-71905000D01*
G75*
G02*
X217615000Y-72055000I-150000J0D01*
G01*
X215865000Y-72055000D01*
G75*
G02*
X215715000Y-71905000I0J150000D01*
G01*
G37*
%TD*%
M02*
