%TF.GenerationSoftware,KiCad,Pcbnew,(5.1.12)-1*%
%TF.CreationDate,2022-02-08T18:48:31+00:00*%
%TF.ProjectId,Watch_PCB_V2,57617463-685f-4504-9342-5f56322e6b69,rev?*%
%TF.SameCoordinates,Original*%
%TF.FileFunction,Copper,L1,Top*%
%TF.FilePolarity,Positive*%
%FSLAX46Y46*%
G04 Gerber Fmt 4.6, Leading zero omitted, Abs format (unit mm)*
G04 Created by KiCad (PCBNEW (5.1.12)-1) date 2022-02-08 18:48:31*
%MOMM*%
%LPD*%
G01*
G04 APERTURE LIST*
%TA.AperFunction,ComponentPad*%
%ADD10O,1.000000X1.000000*%
%TD*%
%TA.AperFunction,ComponentPad*%
%ADD11R,1.000000X1.000000*%
%TD*%
%TA.AperFunction,ComponentPad*%
%ADD12R,0.850000X0.850000*%
%TD*%
%TA.AperFunction,SMDPad,CuDef*%
%ADD13R,1.600000X0.550000*%
%TD*%
%TA.AperFunction,SMDPad,CuDef*%
%ADD14R,0.550000X1.600000*%
%TD*%
%TA.AperFunction,ViaPad*%
%ADD15C,0.800000*%
%TD*%
%TA.AperFunction,Conductor*%
%ADD16C,0.250000*%
%TD*%
G04 APERTURE END LIST*
D10*
%TO.P,ICSP_PORT1,6*%
%TO.N,Vin*%
X217170000Y-83820000D03*
%TO.P,ICSP_PORT1,5*%
%TO.N,GND*%
X217170000Y-85090000D03*
%TO.P,ICSP_PORT1,4*%
%TO.N,SCK*%
X217170000Y-86360000D03*
%TO.P,ICSP_PORT1,3*%
%TO.N,MISO*%
X217170000Y-87630000D03*
%TO.P,ICSP_PORT1,2*%
%TO.N,MOSI*%
X217170000Y-88900000D03*
D11*
%TO.P,ICSP_PORT1,1*%
%TO.N,SS*%
X217170000Y-90170000D03*
%TD*%
D10*
%TO.P,OLED,4*%
%TO.N,SDA*%
X214630000Y-67310000D03*
%TO.P,OLED,3*%
%TO.N,SCL*%
X213360000Y-67310000D03*
%TO.P,OLED,2*%
%TO.N,Vin*%
X212090000Y-67310000D03*
D11*
%TO.P,OLED,1*%
%TO.N,GND*%
X210820000Y-67310000D03*
%TD*%
%TO.P,C1,1*%
%TO.N,Vin*%
%TA.AperFunction,SMDPad,CuDef*%
G36*
G01*
X203807500Y-92090001D02*
X203807500Y-90789999D01*
G75*
G02*
X204057499Y-90540000I249999J0D01*
G01*
X204882501Y-90540000D01*
G75*
G02*
X205132500Y-90789999I0J-249999D01*
G01*
X205132500Y-92090001D01*
G75*
G02*
X204882501Y-92340000I-249999J0D01*
G01*
X204057499Y-92340000D01*
G75*
G02*
X203807500Y-92090001I0J249999D01*
G01*
G37*
%TD.AperFunction*%
%TO.P,C1,2*%
%TO.N,GND*%
%TA.AperFunction,SMDPad,CuDef*%
G36*
G01*
X206932500Y-92090001D02*
X206932500Y-90789999D01*
G75*
G02*
X207182499Y-90540000I249999J0D01*
G01*
X208007501Y-90540000D01*
G75*
G02*
X208257500Y-90789999I0J-249999D01*
G01*
X208257500Y-92090001D01*
G75*
G02*
X208007501Y-92340000I-249999J0D01*
G01*
X207182499Y-92340000D01*
G75*
G02*
X206932500Y-92090001I0J249999D01*
G01*
G37*
%TD.AperFunction*%
%TD*%
D12*
%TO.P,GND1,1*%
%TO.N,GND*%
X210820000Y-91440000D03*
%TD*%
%TO.P,LB,1*%
%TO.N,Net-(Left_button1-Pad1)*%
X193040000Y-85090000D03*
%TD*%
%TO.P,LBI,1*%
%TO.N,GND*%
X193040000Y-88900000D03*
%TD*%
D13*
%TO.P,MCU,1*%
%TO.N,Net-(Left_button1-Pad1)*%
X193870000Y-73400000D03*
%TO.P,MCU,2*%
%TO.N,Net-(MCU1-Pad2)*%
X193870000Y-74200000D03*
%TO.P,MCU,3*%
%TO.N,GND*%
X193870000Y-75000000D03*
%TO.P,MCU,4*%
%TO.N,Vin*%
X193870000Y-75800000D03*
%TO.P,MCU,5*%
%TO.N,GND*%
X193870000Y-76600000D03*
%TO.P,MCU,6*%
%TO.N,Vin*%
X193870000Y-77400000D03*
%TO.P,MCU,7*%
%TO.N,Net-(MCU1-Pad7)*%
X193870000Y-78200000D03*
%TO.P,MCU,8*%
%TO.N,Net-(MCU1-Pad8)*%
X193870000Y-79000000D03*
D14*
%TO.P,MCU,9*%
%TO.N,Net-(MCU1-Pad9)*%
X195320000Y-80450000D03*
%TO.P,MCU,10*%
%TO.N,Net-(MCU1-Pad10)*%
X196120000Y-80450000D03*
%TO.P,MCU,11*%
%TO.N,Net-(MCU1-Pad11)*%
X196920000Y-80450000D03*
%TO.P,MCU,12*%
%TO.N,Net-(MCU1-Pad12)*%
X197720000Y-80450000D03*
%TO.P,MCU,13*%
%TO.N,Net-(MCU1-Pad13)*%
X198520000Y-80450000D03*
%TO.P,MCU,14*%
%TO.N,SS*%
X199320000Y-80450000D03*
%TO.P,MCU,15*%
%TO.N,MOSI*%
X200120000Y-80450000D03*
%TO.P,MCU,16*%
%TO.N,MISO*%
X200920000Y-80450000D03*
D13*
%TO.P,MCU,17*%
%TO.N,SCK*%
X202370000Y-79000000D03*
%TO.P,MCU,18*%
%TO.N,Vin*%
X202370000Y-78200000D03*
%TO.P,MCU,19*%
%TO.N,Net-(MCU1-Pad19)*%
X202370000Y-77400000D03*
%TO.P,MCU,20*%
%TO.N,Net-(MCU1-Pad20)*%
X202370000Y-76600000D03*
%TO.P,MCU,21*%
%TO.N,GND*%
X202370000Y-75800000D03*
%TO.P,MCU,22*%
%TO.N,Net-(MCU1-Pad22)*%
X202370000Y-75000000D03*
%TO.P,MCU,23*%
%TO.N,Net-(MCU1-Pad23)*%
X202370000Y-74200000D03*
%TO.P,MCU,24*%
%TO.N,Net-(MCU1-Pad24)*%
X202370000Y-73400000D03*
D14*
%TO.P,MCU,25*%
%TO.N,Net-(MCU1-Pad25)*%
X200920000Y-71950000D03*
%TO.P,MCU,26*%
%TO.N,Net-(MCU1-Pad26)*%
X200120000Y-71950000D03*
%TO.P,MCU,27*%
%TO.N,SDA*%
X199320000Y-71950000D03*
%TO.P,MCU,28*%
%TO.N,SCL*%
X198520000Y-71950000D03*
%TO.P,MCU,29*%
%TO.N,Net-(MCU1-Pad29)*%
X197720000Y-71950000D03*
%TO.P,MCU,30*%
%TO.N,Net-(MCU1-Pad30)*%
X196920000Y-71950000D03*
%TO.P,MCU,31*%
%TO.N,Net-(MCU1-Pad31)*%
X196120000Y-71950000D03*
%TO.P,MCU,32*%
%TO.N,Net-(MCU1-Pad32)*%
X195320000Y-71950000D03*
%TD*%
%TO.P,R1,1*%
%TO.N,Vin*%
%TA.AperFunction,SMDPad,CuDef*%
G36*
G01*
X202555000Y-88560000D02*
X201305000Y-88560000D01*
G75*
G02*
X201055000Y-88310000I0J250000D01*
G01*
X201055000Y-87510000D01*
G75*
G02*
X201305000Y-87260000I250000J0D01*
G01*
X202555000Y-87260000D01*
G75*
G02*
X202805000Y-87510000I0J-250000D01*
G01*
X202805000Y-88310000D01*
G75*
G02*
X202555000Y-88560000I-250000J0D01*
G01*
G37*
%TD.AperFunction*%
%TO.P,R1,2*%
%TO.N,Net-(MCU1-Pad29)*%
%TA.AperFunction,SMDPad,CuDef*%
G36*
G01*
X202555000Y-85460000D02*
X201305000Y-85460000D01*
G75*
G02*
X201055000Y-85210000I0J250000D01*
G01*
X201055000Y-84410000D01*
G75*
G02*
X201305000Y-84160000I250000J0D01*
G01*
X202555000Y-84160000D01*
G75*
G02*
X202805000Y-84410000I0J-250000D01*
G01*
X202805000Y-85210000D01*
G75*
G02*
X202555000Y-85460000I-250000J0D01*
G01*
G37*
%TD.AperFunction*%
%TD*%
%TO.P,R2,2*%
%TO.N,SDA*%
%TA.AperFunction,SMDPad,CuDef*%
G36*
G01*
X203110000Y-67935000D02*
X203110000Y-66685000D01*
G75*
G02*
X203360000Y-66435000I250000J0D01*
G01*
X204160000Y-66435000D01*
G75*
G02*
X204410000Y-66685000I0J-250000D01*
G01*
X204410000Y-67935000D01*
G75*
G02*
X204160000Y-68185000I-250000J0D01*
G01*
X203360000Y-68185000D01*
G75*
G02*
X203110000Y-67935000I0J250000D01*
G01*
G37*
%TD.AperFunction*%
%TO.P,R2,1*%
%TO.N,Vin*%
%TA.AperFunction,SMDPad,CuDef*%
G36*
G01*
X200010000Y-67935000D02*
X200010000Y-66685000D01*
G75*
G02*
X200260000Y-66435000I250000J0D01*
G01*
X201060000Y-66435000D01*
G75*
G02*
X201310000Y-66685000I0J-250000D01*
G01*
X201310000Y-67935000D01*
G75*
G02*
X201060000Y-68185000I-250000J0D01*
G01*
X200260000Y-68185000D01*
G75*
G02*
X200010000Y-67935000I0J250000D01*
G01*
G37*
%TD.AperFunction*%
%TD*%
%TO.P,R3,1*%
%TO.N,Vin*%
%TA.AperFunction,SMDPad,CuDef*%
G36*
G01*
X193660000Y-67935000D02*
X193660000Y-66685000D01*
G75*
G02*
X193910000Y-66435000I250000J0D01*
G01*
X194710000Y-66435000D01*
G75*
G02*
X194960000Y-66685000I0J-250000D01*
G01*
X194960000Y-67935000D01*
G75*
G02*
X194710000Y-68185000I-250000J0D01*
G01*
X193910000Y-68185000D01*
G75*
G02*
X193660000Y-67935000I0J250000D01*
G01*
G37*
%TD.AperFunction*%
%TO.P,R3,2*%
%TO.N,SCL*%
%TA.AperFunction,SMDPad,CuDef*%
G36*
G01*
X196760000Y-67935000D02*
X196760000Y-66685000D01*
G75*
G02*
X197010000Y-66435000I250000J0D01*
G01*
X197810000Y-66435000D01*
G75*
G02*
X198060000Y-66685000I0J-250000D01*
G01*
X198060000Y-67935000D01*
G75*
G02*
X197810000Y-68185000I-250000J0D01*
G01*
X197010000Y-68185000D01*
G75*
G02*
X196760000Y-67935000I0J250000D01*
G01*
G37*
%TD.AperFunction*%
%TD*%
D12*
%TO.P,RB,1*%
%TO.N,Net-(MCU1-Pad2)*%
X196850000Y-85090000D03*
%TD*%
%TO.P,RBI,1*%
%TO.N,GND*%
X196850000Y-88900000D03*
%TD*%
%TO.P,RTC,1*%
%TO.N,Net-(RTC1-Pad1)*%
%TA.AperFunction,SMDPad,CuDef*%
G36*
G01*
X206415000Y-71905000D02*
X206415000Y-71605000D01*
G75*
G02*
X206565000Y-71455000I150000J0D01*
G01*
X208315000Y-71455000D01*
G75*
G02*
X208465000Y-71605000I0J-150000D01*
G01*
X208465000Y-71905000D01*
G75*
G02*
X208315000Y-72055000I-150000J0D01*
G01*
X206565000Y-72055000D01*
G75*
G02*
X206415000Y-71905000I0J150000D01*
G01*
G37*
%TD.AperFunction*%
%TO.P,RTC,2*%
%TO.N,Vin*%
%TA.AperFunction,SMDPad,CuDef*%
G36*
G01*
X206415000Y-73175000D02*
X206415000Y-72875000D01*
G75*
G02*
X206565000Y-72725000I150000J0D01*
G01*
X208315000Y-72725000D01*
G75*
G02*
X208465000Y-72875000I0J-150000D01*
G01*
X208465000Y-73175000D01*
G75*
G02*
X208315000Y-73325000I-150000J0D01*
G01*
X206565000Y-73325000D01*
G75*
G02*
X206415000Y-73175000I0J150000D01*
G01*
G37*
%TD.AperFunction*%
%TO.P,RTC,3*%
%TO.N,Net-(RTC1-Pad3)*%
%TA.AperFunction,SMDPad,CuDef*%
G36*
G01*
X206415000Y-74445000D02*
X206415000Y-74145000D01*
G75*
G02*
X206565000Y-73995000I150000J0D01*
G01*
X208315000Y-73995000D01*
G75*
G02*
X208465000Y-74145000I0J-150000D01*
G01*
X208465000Y-74445000D01*
G75*
G02*
X208315000Y-74595000I-150000J0D01*
G01*
X206565000Y-74595000D01*
G75*
G02*
X206415000Y-74445000I0J150000D01*
G01*
G37*
%TD.AperFunction*%
%TO.P,RTC,4*%
%TO.N,Net-(RTC1-Pad4)*%
%TA.AperFunction,SMDPad,CuDef*%
G36*
G01*
X206415000Y-75715000D02*
X206415000Y-75415000D01*
G75*
G02*
X206565000Y-75265000I150000J0D01*
G01*
X208315000Y-75265000D01*
G75*
G02*
X208465000Y-75415000I0J-150000D01*
G01*
X208465000Y-75715000D01*
G75*
G02*
X208315000Y-75865000I-150000J0D01*
G01*
X206565000Y-75865000D01*
G75*
G02*
X206415000Y-75715000I0J150000D01*
G01*
G37*
%TD.AperFunction*%
%TO.P,RTC,5*%
%TO.N,GND*%
%TA.AperFunction,SMDPad,CuDef*%
G36*
G01*
X206415000Y-76985000D02*
X206415000Y-76685000D01*
G75*
G02*
X206565000Y-76535000I150000J0D01*
G01*
X208315000Y-76535000D01*
G75*
G02*
X208465000Y-76685000I0J-150000D01*
G01*
X208465000Y-76985000D01*
G75*
G02*
X208315000Y-77135000I-150000J0D01*
G01*
X206565000Y-77135000D01*
G75*
G02*
X206415000Y-76985000I0J150000D01*
G01*
G37*
%TD.AperFunction*%
%TO.P,RTC,6*%
%TA.AperFunction,SMDPad,CuDef*%
G36*
G01*
X206415000Y-78255000D02*
X206415000Y-77955000D01*
G75*
G02*
X206565000Y-77805000I150000J0D01*
G01*
X208315000Y-77805000D01*
G75*
G02*
X208465000Y-77955000I0J-150000D01*
G01*
X208465000Y-78255000D01*
G75*
G02*
X208315000Y-78405000I-150000J0D01*
G01*
X206565000Y-78405000D01*
G75*
G02*
X206415000Y-78255000I0J150000D01*
G01*
G37*
%TD.AperFunction*%
%TO.P,RTC,7*%
%TA.AperFunction,SMDPad,CuDef*%
G36*
G01*
X206415000Y-79525000D02*
X206415000Y-79225000D01*
G75*
G02*
X206565000Y-79075000I150000J0D01*
G01*
X208315000Y-79075000D01*
G75*
G02*
X208465000Y-79225000I0J-150000D01*
G01*
X208465000Y-79525000D01*
G75*
G02*
X208315000Y-79675000I-150000J0D01*
G01*
X206565000Y-79675000D01*
G75*
G02*
X206415000Y-79525000I0J150000D01*
G01*
G37*
%TD.AperFunction*%
%TO.P,RTC,8*%
%TA.AperFunction,SMDPad,CuDef*%
G36*
G01*
X206415000Y-80795000D02*
X206415000Y-80495000D01*
G75*
G02*
X206565000Y-80345000I150000J0D01*
G01*
X208315000Y-80345000D01*
G75*
G02*
X208465000Y-80495000I0J-150000D01*
G01*
X208465000Y-80795000D01*
G75*
G02*
X208315000Y-80945000I-150000J0D01*
G01*
X206565000Y-80945000D01*
G75*
G02*
X206415000Y-80795000I0J150000D01*
G01*
G37*
%TD.AperFunction*%
%TO.P,RTC,9*%
%TA.AperFunction,SMDPad,CuDef*%
G36*
G01*
X215715000Y-80795000D02*
X215715000Y-80495000D01*
G75*
G02*
X215865000Y-80345000I150000J0D01*
G01*
X217615000Y-80345000D01*
G75*
G02*
X217765000Y-80495000I0J-150000D01*
G01*
X217765000Y-80795000D01*
G75*
G02*
X217615000Y-80945000I-150000J0D01*
G01*
X215865000Y-80945000D01*
G75*
G02*
X215715000Y-80795000I0J150000D01*
G01*
G37*
%TD.AperFunction*%
%TO.P,RTC,10*%
%TA.AperFunction,SMDPad,CuDef*%
G36*
G01*
X215715000Y-79525000D02*
X215715000Y-79225000D01*
G75*
G02*
X215865000Y-79075000I150000J0D01*
G01*
X217615000Y-79075000D01*
G75*
G02*
X217765000Y-79225000I0J-150000D01*
G01*
X217765000Y-79525000D01*
G75*
G02*
X217615000Y-79675000I-150000J0D01*
G01*
X215865000Y-79675000D01*
G75*
G02*
X215715000Y-79525000I0J150000D01*
G01*
G37*
%TD.AperFunction*%
%TO.P,RTC,11*%
%TA.AperFunction,SMDPad,CuDef*%
G36*
G01*
X215715000Y-78255000D02*
X215715000Y-77955000D01*
G75*
G02*
X215865000Y-77805000I150000J0D01*
G01*
X217615000Y-77805000D01*
G75*
G02*
X217765000Y-77955000I0J-150000D01*
G01*
X217765000Y-78255000D01*
G75*
G02*
X217615000Y-78405000I-150000J0D01*
G01*
X215865000Y-78405000D01*
G75*
G02*
X215715000Y-78255000I0J150000D01*
G01*
G37*
%TD.AperFunction*%
%TO.P,RTC,12*%
%TA.AperFunction,SMDPad,CuDef*%
G36*
G01*
X215715000Y-76985000D02*
X215715000Y-76685000D01*
G75*
G02*
X215865000Y-76535000I150000J0D01*
G01*
X217615000Y-76535000D01*
G75*
G02*
X217765000Y-76685000I0J-150000D01*
G01*
X217765000Y-76985000D01*
G75*
G02*
X217615000Y-77135000I-150000J0D01*
G01*
X215865000Y-77135000D01*
G75*
G02*
X215715000Y-76985000I0J150000D01*
G01*
G37*
%TD.AperFunction*%
%TO.P,RTC,13*%
%TA.AperFunction,SMDPad,CuDef*%
G36*
G01*
X215715000Y-75715000D02*
X215715000Y-75415000D01*
G75*
G02*
X215865000Y-75265000I150000J0D01*
G01*
X217615000Y-75265000D01*
G75*
G02*
X217765000Y-75415000I0J-150000D01*
G01*
X217765000Y-75715000D01*
G75*
G02*
X217615000Y-75865000I-150000J0D01*
G01*
X215865000Y-75865000D01*
G75*
G02*
X215715000Y-75715000I0J150000D01*
G01*
G37*
%TD.AperFunction*%
%TO.P,RTC,14*%
%TA.AperFunction,SMDPad,CuDef*%
G36*
G01*
X215715000Y-74445000D02*
X215715000Y-74145000D01*
G75*
G02*
X215865000Y-73995000I150000J0D01*
G01*
X217615000Y-73995000D01*
G75*
G02*
X217765000Y-74145000I0J-150000D01*
G01*
X217765000Y-74445000D01*
G75*
G02*
X217615000Y-74595000I-150000J0D01*
G01*
X215865000Y-74595000D01*
G75*
G02*
X215715000Y-74445000I0J150000D01*
G01*
G37*
%TD.AperFunction*%
%TO.P,RTC,15*%
%TO.N,SDA*%
%TA.AperFunction,SMDPad,CuDef*%
G36*
G01*
X215715000Y-73175000D02*
X215715000Y-72875000D01*
G75*
G02*
X215865000Y-72725000I150000J0D01*
G01*
X217615000Y-72725000D01*
G75*
G02*
X217765000Y-72875000I0J-150000D01*
G01*
X217765000Y-73175000D01*
G75*
G02*
X217615000Y-73325000I-150000J0D01*
G01*
X215865000Y-73325000D01*
G75*
G02*
X215715000Y-73175000I0J150000D01*
G01*
G37*
%TD.AperFunction*%
%TO.P,RTC,16*%
%TO.N,SCL*%
%TA.AperFunction,SMDPad,CuDef*%
G36*
G01*
X215715000Y-71905000D02*
X215715000Y-71605000D01*
G75*
G02*
X215865000Y-71455000I150000J0D01*
G01*
X217615000Y-71455000D01*
G75*
G02*
X217765000Y-71605000I0J-150000D01*
G01*
X217765000Y-71905000D01*
G75*
G02*
X217615000Y-72055000I-150000J0D01*
G01*
X215865000Y-72055000D01*
G75*
G02*
X215715000Y-71905000I0J150000D01*
G01*
G37*
%TD.AperFunction*%
%TD*%
%TO.P,VDD1,1*%
%TO.N,Vin*%
X200660000Y-91440000D03*
%TD*%
D15*
%TO.N,GND*%
X205740000Y-77470000D03*
X200660000Y-76200000D03*
%TO.N,SS*%
X199390000Y-88900000D03*
%TO.N,MOSI*%
X200660000Y-82550000D03*
X200660000Y-82550000D03*
%TO.N,MISO*%
X202770001Y-82550000D03*
%TO.N,SCK*%
X202770001Y-80010000D03*
%TO.N,Net-(Left_button1-Pad1)*%
X193469999Y-72390000D03*
%TO.N,Net-(MCU1-Pad2)*%
X195580000Y-73660000D03*
%TO.N,SCL*%
X198120000Y-67310000D03*
X218440000Y-72390000D03*
X212090000Y-68580000D03*
%TO.N,Net-(MCU1-Pad29)*%
X200095000Y-85090000D03*
X196850000Y-73660000D03*
%TD*%
D16*
%TO.N,Vin*%
X200660000Y-91440000D02*
X204470000Y-91440000D01*
X200660000Y-89180000D02*
X201930000Y-87910000D01*
X200660000Y-91440000D02*
X200660000Y-89180000D01*
X192820000Y-75800000D02*
X193870000Y-75800000D01*
X192694999Y-75674999D02*
X192820000Y-75800000D01*
X192694999Y-68925001D02*
X192694999Y-75674999D01*
X194310000Y-67310000D02*
X192694999Y-68925001D01*
X192820000Y-77400000D02*
X193870000Y-77400000D01*
X192694999Y-77274999D02*
X192820000Y-77400000D01*
X192694999Y-76024999D02*
X192694999Y-77274999D01*
X192919998Y-75800000D02*
X192694999Y-76024999D01*
X193870000Y-75800000D02*
X192919998Y-75800000D01*
X194820002Y-77400000D02*
X193870000Y-77400000D01*
X195620002Y-78200000D02*
X194820002Y-77400000D01*
X202370000Y-78200000D02*
X195620002Y-78200000D01*
X203420000Y-78200000D02*
X202370000Y-78200000D01*
X203545001Y-78325001D02*
X203420000Y-78200000D01*
X203545001Y-86294999D02*
X203545001Y-78325001D01*
X196850000Y-64770000D02*
X194310000Y-67310000D01*
X198120000Y-64770000D02*
X196850000Y-64770000D01*
X211820000Y-66708960D02*
X211151040Y-66040000D01*
X211820000Y-67310000D02*
X211820000Y-66708960D01*
X211151040Y-66040000D02*
X199390000Y-66040000D01*
X199390000Y-66040000D02*
X198120000Y-64770000D01*
X200660000Y-67310000D02*
X199390000Y-66040000D01*
X204670000Y-85170000D02*
X203340000Y-86500000D01*
X203340000Y-86500000D02*
X203545001Y-86294999D01*
X201930000Y-87910000D02*
X203340000Y-86500000D01*
X204670000Y-85170000D02*
X205660000Y-85170000D01*
X207010000Y-83820000D02*
X217170000Y-83820000D01*
X205660000Y-85170000D02*
X207010000Y-83820000D01*
X203420000Y-78200000D02*
X204470000Y-77150000D01*
X206415000Y-73025000D02*
X207440000Y-73025000D01*
X204470000Y-74970000D02*
X206415000Y-73025000D01*
X204470000Y-77150000D02*
X204470000Y-74970000D01*
%TO.N,GND*%
X207595000Y-91440000D02*
X210820000Y-91440000D01*
X216740000Y-80645000D02*
X216740000Y-79375000D01*
X216740000Y-79375000D02*
X216740000Y-78105000D01*
X216740000Y-78105000D02*
X216740000Y-76835000D01*
X216740000Y-76835000D02*
X207440000Y-76835000D01*
X207440000Y-76835000D02*
X207440000Y-78105000D01*
X207440000Y-78105000D02*
X207440000Y-79375000D01*
X207440000Y-80645000D02*
X207440000Y-79375000D01*
X216740000Y-80645000D02*
X217805000Y-80645000D01*
X217805000Y-80645000D02*
X219710000Y-82550000D01*
X219710000Y-82550000D02*
X219710000Y-85090000D01*
X219710000Y-85090000D02*
X217170000Y-85090000D01*
X206375000Y-76835000D02*
X205740000Y-77470000D01*
X207440000Y-76835000D02*
X206375000Y-76835000D01*
X201060000Y-75800000D02*
X200660000Y-76200000D01*
X202370000Y-75800000D02*
X201060000Y-75800000D01*
X216740000Y-74295000D02*
X216740000Y-75565000D01*
X216740000Y-75565000D02*
X216740000Y-76835000D01*
X194820002Y-76600000D02*
X193870000Y-76600000D01*
X195045001Y-76375001D02*
X194820002Y-76600000D01*
X195045001Y-75125001D02*
X195045001Y-76375001D01*
X194920000Y-75000000D02*
X195045001Y-75125001D01*
X193870000Y-75000000D02*
X194920000Y-75000000D01*
X200260001Y-76599999D02*
X200660000Y-76200000D01*
X193870000Y-76600000D02*
X200260001Y-76599999D01*
%TO.N,SS*%
X199320000Y-88830000D02*
X199390000Y-88900000D01*
X199320000Y-80450000D02*
X199320000Y-88830000D01*
%TO.N,MOSI*%
X200120000Y-82010000D02*
X200660000Y-82550000D01*
X200120000Y-80450000D02*
X200120000Y-82010000D01*
%TO.N,MISO*%
X200920000Y-80699999D02*
X202770001Y-82550000D01*
X200920000Y-80450000D02*
X200920000Y-80699999D01*
%TO.N,SCK*%
X202370000Y-79609999D02*
X202770001Y-80010000D01*
X202370000Y-79000000D02*
X202370000Y-79609999D01*
%TO.N,Net-(Left_button1-Pad1)*%
X193870000Y-72790001D02*
X193469999Y-72390000D01*
X193870000Y-73400000D02*
X193870000Y-72790001D01*
%TO.N,Net-(MCU1-Pad2)*%
X195040000Y-74200000D02*
X195580000Y-73660000D01*
X193870000Y-74200000D02*
X195040000Y-74200000D01*
%TO.N,SDA*%
X199320000Y-70999998D02*
X199320000Y-71950000D01*
X203009998Y-67310000D02*
X199320000Y-70999998D01*
X203760000Y-67310000D02*
X203009998Y-67310000D01*
X215265000Y-73025000D02*
X216740000Y-73025000D01*
X203760000Y-67310000D02*
X204560001Y-68110001D01*
X212725000Y-70485000D02*
X215265000Y-73025000D01*
X214630000Y-68580000D02*
X212725000Y-70485000D01*
X214630000Y-67310000D02*
X214630000Y-68580000D01*
X206935000Y-70485000D02*
X203760000Y-67310000D01*
X212725000Y-70485000D02*
X206935000Y-70485000D01*
%TO.N,SCL*%
X198520000Y-68420000D02*
X198520000Y-71950000D01*
X197410000Y-67310000D02*
X198520000Y-68420000D01*
X197410000Y-67310000D02*
X198120000Y-67310000D01*
X217805000Y-71755000D02*
X216740000Y-71755000D01*
X218440000Y-72390000D02*
X217805000Y-71755000D01*
X212090000Y-68580000D02*
X213360000Y-68580000D01*
X213360000Y-68580000D02*
X213360000Y-67310000D01*
%TO.N,Net-(MCU1-Pad29)*%
X201650000Y-85090000D02*
X201930000Y-84810000D01*
X200095000Y-85090000D02*
X201650000Y-85090000D01*
X197720000Y-72790000D02*
X196850000Y-73660000D01*
X197720000Y-71950000D02*
X197720000Y-72790000D01*
%TD*%
M02*
